<svg width="20" height="20" viewBox="0 0 20 20" fill="none" xmlns="http://www.w3.org/2000/svg">
<path d="M3.50378 4.81195C4.27285 3.47486 6.20205 3.47486 6.97112 4.81195L8.02918 6.65145C8.7961 7.98478 7.83367 9.64864 6.29551 9.64864H4.17939C2.64123 9.64864 1.6788 7.98479 2.44572 6.65145L3.50378 4.81195Z" fill="#FFD23F"/>
<rect x="0.768066" y="10.2661" width="8.93873" height="8.93873" rx="2" fill="#0EAD69"/>
<path d="M16.4196 15.0933C15.6505 16.4304 13.7213 16.4304 12.9522 15.0933L11.8942 13.2538C11.1272 11.9205 12.0897 10.2566 13.6278 10.2566L15.744 10.2566C17.2821 10.2566 18.2445 11.9205 17.4776 13.2538L16.4196 15.0933Z" fill="#EE4266"/>
<rect x="19.1553" y="9.63867" width="8.93873" height="8.93873" rx="2" transform="rotate(180 19.1553 9.63867)" fill="#540D6E"/>
</svg>
