<svg width="60" height="60" viewBox="0 0 60 60" fill="none" xmlns="http://www.w3.org/2000/svg">
<g filter="url(#filter0_d)">
<rect x="7" y="5" width="46" height="46" rx="5" fill="#F2F5FB"/>
</g>
<path fill-rule="evenodd" clip-rule="evenodd" d="M30 20.5C27.0202 20.5 25 22.9827 25 25.5V25.6687C25.2743 25.7462 25.5131 25.8434 25.7153 25.9445C25.9459 26.0598 26.1266 26.1789 26.2578 26.2773C26.3235 26.3266 26.3771 26.3709 26.4188 26.4074C26.4397 26.4257 26.4576 26.442 26.4726 26.4561L26.4929 26.4754L26.5014 26.4837L26.5053 26.4875L26.5071 26.4894L26.508 26.4902C26.5085 26.4907 26.5089 26.4911 25.625 27.375L26.5089 26.4911C26.997 26.9793 26.997 27.7707 26.5089 28.2589C26.03 28.7377 25.2593 28.7469 24.7694 28.2863L24.7578 28.2773C24.7328 28.2586 24.6791 28.2215 24.5972 28.1805C24.4376 28.1007 24.159 28 23.75 28C21.4155 28 20 29.8357 20 31.75C20 33.6643 21.4155 35.5 23.75 35.5H30H36.25C38.5845 35.5 40 33.6643 40 31.75C40 29.8357 38.5845 28 36.25 28C35.841 28 35.5624 28.1007 35.4028 28.1805C35.3209 28.2215 35.2672 28.2586 35.2422 28.2773L35.2307 28.2862C34.7407 28.7469 33.97 28.7377 33.4911 28.2589C33.003 27.7707 33.003 26.9793 33.4911 26.4911L34.375 27.375C33.4911 26.4911 33.4916 26.4907 33.492 26.4902L33.4929 26.4894L33.4947 26.4875L33.4986 26.4837L33.5071 26.4754L33.5274 26.4561C33.5424 26.442 33.5603 26.4257 33.5812 26.4074C33.6229 26.3709 33.6765 26.3266 33.7422 26.2773C33.8734 26.1789 34.0541 26.0598 34.2847 25.9445C34.4869 25.8434 34.7257 25.7462 35 25.6687V25.5C35 22.9827 32.9798 20.5 30 20.5ZM22.5 25.6136C19.3428 26.2048 17.5 29.0084 17.5 31.75C17.5 34.8358 19.8345 38 23.75 38H30H36.25C40.1655 38 42.5 34.8358 42.5 31.75C42.5 29.0084 40.6572 26.2048 37.5 25.6136V25.5C37.5 21.7673 34.5202 18 30 18C25.4798 18 22.5 21.7673 22.5 25.5V25.6136Z" fill="url(#paint0_linear)"/>
<defs>
<filter id="filter0_d" x="0" y="0" width="60" height="60" filterUnits="userSpaceOnUse" color-interpolation-filters="sRGB">
<feFlood flood-opacity="0" result="BackgroundImageFix"/>
<feColorMatrix in="SourceAlpha" type="matrix" values="0 0 0 0 0 0 0 0 0 0 0 0 0 0 0 0 0 0 127 0"/>
<feOffset dy="2"/>
<feGaussianBlur stdDeviation="3.5"/>
<feColorMatrix type="matrix" values="0 0 0 0 0.164706 0 0 0 0 0.239216 0 0 0 0 0.454902 0 0 0 0.25 0"/>
<feBlend mode="normal" in2="BackgroundImageFix" result="effect1_dropShadow"/>
<feBlend mode="normal" in="SourceGraphic" in2="effect1_dropShadow" result="shape"/>
</filter>
<linearGradient id="paint0_linear" x1="17.3377" y1="18.2598" x2="42.6624" y2="37.7403" gradientUnits="userSpaceOnUse">
<stop stop-color="#1042F1"/>
<stop offset="1" stop-color="#109CF1"/>
</linearGradient>
</defs>
</svg>
