<svg width="84" height="30" viewBox="0 0 84 30" fill="none" xmlns="http://www.w3.org/2000/svg">
<g clip-path="url(#clip0)">
<path fill-rule="evenodd" clip-rule="evenodd" d="M27.6823 7.16411C26.4015 5.06672 24.6203 3.31012 22.506 2.06138C20.2878 0.751604 17.6998 0 14.934 0C12.1683 0 9.58014 0.751437 7.36212 2.06138C5.24764 3.31003 3.46663 5.06672 2.18567 7.16402C4.51213 7.97051 6.35853 9.79242 7.20982 12.09C7.62721 10.9637 8.28254 9.9535 9.11498 9.121C10.6058 7.62997 12.6629 6.70797 14.934 6.70797C17.2058 6.70797 19.2637 7.63055 20.7544 9.12233C21.5859 9.95458 22.2409 10.964 22.658 12.0893C23.5112 9.78458 25.3595 7.97101 27.6823 7.16411Z" fill="#B1B3B3"/>
<path fill-rule="evenodd" clip-rule="evenodd" d="M22.1437 18.9622C21.769 19.6398 21.3019 20.2587 20.7598 20.8022C19.2688 22.2957 17.2089 23.2196 14.9342 23.2196C12.659 23.2196 10.5991 22.2955 9.10809 20.8015C7.61702 19.3075 6.69477 17.2434 6.69477 14.9638C6.69477 11.8116 4.66428 9.03792 1.67153 8.07568C1.15912 9.06392 0.753685 10.1152 0.470586 11.2147C0.163418 12.4074 0 13.6637 0 14.9639C0 19.096 1.67162 22.8371 4.37413 25.5449C7.07663 28.2527 10.8102 29.9277 14.9342 29.9277C16.8896 29.9277 18.7436 29.1458 20.1088 27.7422C21.3749 26.4406 22.1534 24.6637 22.1457 22.7057L22.1436 18.9622L22.1437 18.9622Z" fill="#003D64"/>
<path fill-rule="evenodd" clip-rule="evenodd" d="M29.8682 14.9638C29.8682 13.6637 29.7047 12.4073 29.3975 11.2146C29.1148 10.1153 28.7093 9.06383 28.1966 8.07568C25.2163 9.02475 23.1788 11.8094 23.1716 14.945V22.7036C23.1802 25.0802 22.1617 27.3357 20.3793 28.9025C22.3438 28.1313 24.106 26.9552 25.563 25.4766C28.225 22.7748 29.8681 19.0622 29.8681 14.9638H29.8682Z" fill="#D52023"/>
<path fill-rule="evenodd" clip-rule="evenodd" d="M42.6315 23.2794C44.53 23.2794 46.0894 22.8267 47.2872 21.8981C48.4851 20.9697 49.0952 19.7467 49.0952 18.1842C49.0952 16.8256 48.6658 15.7612 47.807 15.0139C46.9481 14.2667 45.7504 13.6326 44.236 13.1344C43.5808 12.9306 42.541 12.6588 42.0666 12.5003L41.3434 12.2512C40.8687 12.0475 40.6878 11.821 40.6878 11.5265C40.6878 10.8247 41.3884 10.4849 42.7672 10.4849C43.6712 10.4849 44.5977 10.6434 45.5696 10.9378C46.5415 11.2322 47.3776 11.5946 48.0782 12.0248V8.10713C46.4282 7.22397 44.6428 6.7937 42.7218 6.7937C38.9249 6.7937 36.5066 8.49198 36.5066 11.5493C36.5066 12.4777 36.7778 13.3157 37.0717 13.8818C37.4107 14.4479 38.1565 14.9913 38.6085 15.3311C38.8572 15.4896 39.1961 15.6482 39.6482 15.8292L40.6877 16.2368L41.8404 16.5765L43.2642 17.0068C43.5354 17.0973 44.1004 17.256 44.2812 17.4145C44.6427 17.6635 44.8914 17.8672 44.8914 18.3428C44.8914 19.1806 44.0779 19.5883 42.473 19.5883C41.4561 19.5883 40.3714 19.3845 39.2187 18.9543C38.0661 18.524 37.162 18.0258 36.5065 17.4145V21.5812C38.1564 22.7135 40.1905 23.2795 42.6313 23.2795L42.6315 23.2794Z" fill="#003D64"/>
<path fill-rule="evenodd" clip-rule="evenodd" d="M78.3514 22.9666C80.0463 22.9666 81.4251 22.559 82.4421 21.7211C83.4816 20.8832 84.0014 19.7737 84.0014 18.415C84.0014 17.2601 83.6854 16.3315 83.0749 15.5843C82.4648 14.837 81.7641 14.384 80.9957 14.203C81.9675 13.7501 82.8489 12.663 82.8489 11.1231C82.8489 8.51896 80.8149 7.11499 77.9221 7.11499H70.2156V22.9666H78.3515H78.3514ZM74.2833 16.1958H77.5603C78.7581 16.1958 79.5491 16.8299 79.5491 17.894C79.5491 18.9585 78.8033 19.5699 77.5603 19.5699H74.2833V16.1958ZM74.2833 10.4213H77.3118C78.3062 10.4213 78.939 10.9421 78.939 11.8253C78.939 12.6631 78.3062 13.184 77.3118 13.184H74.2833V10.4213Z" fill="#003D64"/>
<path fill-rule="evenodd" clip-rule="evenodd" d="M64.3892 27.0605C65.3216 27.0605 66.1631 26.8781 66.9364 26.5364V23.1405C66.368 23.4596 65.731 23.6191 65.0488 23.6191C64.1617 23.6191 63.4339 23.3001 62.8881 22.6393C64.3663 21.9783 65.5265 20.9529 66.3907 19.6081C67.2549 18.2636 67.6872 16.7595 67.6872 15.0958C67.6872 12.794 66.8909 10.8341 65.2989 9.21604C63.7069 7.59788 61.7053 6.80029 59.2943 6.80029C56.8835 6.80029 54.8819 7.59797 53.2898 9.21604C51.6977 10.8341 50.9015 12.794 50.9015 15.0958C50.9015 17.2608 51.6067 19.1524 53.0396 20.7249C54.4726 22.2973 56.2921 23.1635 58.4983 23.3457C60.7046 26.0805 62.4786 27.0605 64.3892 27.0605ZM56.292 18.332C55.496 17.4887 55.1091 16.395 55.1091 15.0959C55.1091 13.7968 55.496 12.703 56.292 11.8598C57.0881 11.0165 58.0889 10.5837 59.2943 10.5837C60.4998 10.5837 61.4777 11.0166 62.2738 11.8598C63.0699 12.703 63.4793 13.7968 63.4793 15.0959C63.4793 16.395 63.0699 17.4888 62.2738 18.332C61.4776 19.1752 60.4997 19.6081 59.2943 19.6081C58.0888 19.6081 57.088 19.1751 56.292 18.332Z" fill="#003D64"/>
</g>
<defs>
<clipPath id="clip0">
<rect width="84" height="30" fill="white"/>
</clipPath>
</defs>
</svg>
