<svg width="24" height="24" viewBox="0 0 24 24" fill="none" xmlns="http://www.w3.org/2000/svg">
<path d="M20.5105 24H4.12474C4.02302 24 3.92547 23.9596 3.85354 23.8877C3.78162 23.8157 3.74121 23.7182 3.74121 23.6165V0.383531C3.74121 0.281812 3.78162 0.18426 3.85354 0.112334C3.92547 0.0404076 4.02302 0 4.12474 0L13.5366 0L20.8941 7.3575V23.6165C20.8941 23.7182 20.8537 23.8157 20.7817 23.8877C20.7098 23.9596 20.6122 24 20.5105 24Z" fill="#56B8F4"/>
<path d="M7.24694 19.3081C6.8495 19.3081 6.51974 19.2029 6.25766 18.9927C5.99558 18.7825 5.80117 18.5045 5.67446 18.1589C5.54773 17.8133 5.48438 17.4404 5.48438 17.0401C5.48438 16.6138 5.55206 16.2308 5.68742 15.8909C5.82278 15.5482 6.02294 15.2789 6.2879 15.0831C6.55286 14.8844 6.87686 14.785 7.2599 14.785C7.44134 14.785 7.60694 14.8095 7.7567 14.8585C7.90646 14.9045 8.03894 14.9708 8.15414 15.0572C8.27222 15.1407 8.37158 15.2386 8.45222 15.3509H8.54726V14.9362C8.54726 14.582 8.54726 14.2349 8.54726 13.8951C8.54726 13.5524 8.54726 13.2111 8.54726 12.8713L9.64454 12.7676C9.64454 13.1103 9.64454 13.4602 9.64454 13.8173C9.64454 14.1716 9.64454 14.5445 9.64454 14.9362V17.3252C9.64454 17.6823 9.64454 18.0063 9.64454 18.2972C9.64454 18.5881 9.64454 18.889 9.64454 19.2001H8.7071L8.6423 18.6255H8.56021C8.45078 18.7753 8.33126 18.9005 8.20166 19.0013C8.07206 19.1021 7.92806 19.1785 7.76965 19.2303C7.61126 19.2821 7.43702 19.3081 7.24694 19.3081ZM7.64438 18.362C7.78262 18.362 7.9079 18.3404 8.02022 18.2972C8.13253 18.2511 8.2319 18.1863 8.3183 18.1028C8.4047 18.0193 8.48102 17.9213 8.54726 17.809V16.1977C8.47814 16.0997 8.39606 16.0177 8.30102 15.9514C8.20886 15.8823 8.10662 15.8305 7.9943 15.7959C7.88486 15.7585 7.7711 15.7397 7.65302 15.7397C7.41686 15.7397 7.22102 15.8002 7.0655 15.9212C6.91286 16.0393 6.79765 16.1977 6.7199 16.3964C6.64502 16.5922 6.60757 16.8097 6.60757 17.0487C6.60757 17.2762 6.64358 17.4893 6.71558 17.6881C6.79046 17.8868 6.90422 18.0495 7.05686 18.1762C7.2095 18.3001 7.40533 18.362 7.64438 18.362Z" fill="white"/>
<path d="M12.7595 19.3081C12.3794 19.3081 12.0482 19.2476 11.7659 19.1266C11.4837 19.0028 11.249 18.8343 11.0618 18.6212C10.8746 18.4081 10.7349 18.1647 10.6427 17.8911C10.5506 17.6175 10.5045 17.3309 10.5045 17.0314C10.5045 16.6023 10.5909 16.2193 10.7637 15.8823C10.9365 15.5425 11.1885 15.2746 11.5197 15.0788C11.8538 14.8829 12.2598 14.785 12.7379 14.785C13.1066 14.785 13.4291 14.8426 13.7056 14.9578C13.985 15.0701 14.2182 15.2285 14.4054 15.433C14.5955 15.6375 14.7381 15.8765 14.8331 16.1501C14.9282 16.4209 14.9757 16.7146 14.9757 17.0314C14.9757 17.4634 14.8878 17.8508 14.7122 18.1935C14.5394 18.5362 14.2874 18.8084 13.9562 19.01C13.625 19.2087 13.2261 19.3081 12.7595 19.3081ZM12.7552 18.4009C13.0029 18.4009 13.2074 18.3361 13.3686 18.2065C13.5328 18.074 13.6552 17.9041 13.7358 17.6967C13.8165 17.4893 13.8568 17.2676 13.8568 17.0314C13.8568 16.7549 13.8107 16.5173 13.7186 16.3186C13.6293 16.117 13.5011 15.9629 13.3341 15.8564C13.167 15.7469 12.9726 15.6922 12.7509 15.6922C12.5061 15.6922 12.2987 15.7527 12.1288 15.8737C11.9618 15.9917 11.835 16.1516 11.7486 16.3532C11.6651 16.5548 11.6234 16.7809 11.6234 17.0314C11.6234 17.2676 11.6651 17.4893 11.7486 17.6967C11.8322 17.9041 11.9574 18.074 12.1245 18.2065C12.2944 18.3361 12.5046 18.4009 12.7552 18.4009Z" fill="white"/>
<path d="M17.919 19.2908C17.438 19.2908 17.029 19.1943 16.6921 19.0013C16.358 18.8055 16.1031 18.5391 15.9274 18.2021C15.7546 17.8652 15.6682 17.4821 15.6682 17.053C15.6682 16.621 15.7503 16.2351 15.9145 15.8953C16.0786 15.5525 16.3206 15.2833 16.6402 15.0874C16.9628 14.8887 17.3617 14.7893 17.8369 14.7893C18.0068 14.7893 18.1753 14.8023 18.3423 14.8282C18.5094 14.8541 18.6663 14.8916 18.8132 14.9405C18.963 14.9866 19.0954 15.0413 19.2106 15.1047L19.1242 16.0637C18.9601 15.9716 18.8089 15.901 18.6706 15.8521C18.5353 15.8031 18.41 15.77 18.2948 15.7527C18.1796 15.7354 18.0759 15.7268 17.9838 15.7268C17.6209 15.7268 17.33 15.8434 17.1111 16.0767C16.8951 16.31 16.7871 16.6253 16.7871 17.0228C16.7871 17.2849 16.839 17.5181 16.9426 17.7226C17.0463 17.9242 17.199 18.0841 17.4006 18.2021C17.605 18.3173 17.8585 18.3749 18.1609 18.3749C18.2732 18.3749 18.3855 18.3649 18.4978 18.3447C18.6102 18.3245 18.721 18.2943 18.8305 18.254C18.9399 18.2108 19.045 18.1561 19.1458 18.0898L19.2106 19.0489C19.1127 19.0949 18.999 19.1367 18.8694 19.1741C18.7426 19.2087 18.6001 19.2361 18.4417 19.2562C18.2833 19.2793 18.109 19.2908 17.919 19.2908Z" fill="white"/>
<path d="M13.5372 0L20.8947 7.3575H15.101C14.2373 7.3575 13.5371 6.65733 13.5371 5.79361V0H13.5372Z" fill="#77C6F6"/>
</svg>
