<svg width="24" height="24" viewBox="0 0 24 24" fill="none" xmlns="http://www.w3.org/2000/svg">
<path d="M20.5105 24H4.12474C4.02302 24 3.92547 23.9596 3.85354 23.8877C3.78162 23.8157 3.74121 23.7182 3.74121 23.6165V0.383531C3.74121 0.281812 3.78162 0.18426 3.85354 0.112334C3.92547 0.0404076 4.02302 0 4.12474 0L13.5366 0L20.8941 7.3575V23.6165C20.8941 23.7182 20.8537 23.8157 20.7817 23.8877C20.7098 23.9596 20.6122 24 20.5105 24Z" fill="#FF5D52"/>
<path d="M5.78418 21.1432C5.78418 20.8322 5.78418 20.5254 5.78418 20.223C5.78418 19.9206 5.78418 19.5909 5.78418 19.2338V17.1429C5.78418 16.8174 5.78418 16.4877 5.78418 16.1536C5.78418 15.8195 5.78418 15.484 5.78418 15.147L6.76482 15.0909L6.79506 15.6698H6.8901C6.9765 15.543 7.08162 15.4322 7.20546 15.3371C7.33218 15.2392 7.47618 15.1643 7.63746 15.1125C7.79874 15.0606 7.97586 15.0347 8.16882 15.0347C8.55186 15.0347 8.87586 15.1341 9.14082 15.3328C9.40578 15.5286 9.60594 15.7979 9.7413 16.1406C9.87666 16.4805 9.94434 16.8635 9.94434 17.2898C9.94434 17.6901 9.88098 18.063 9.75426 18.4086C9.62754 18.7542 9.43314 19.0322 9.17106 19.2424C8.90898 19.4526 8.57922 19.5578 8.18178 19.5578C8.00034 19.5578 7.83474 19.5333 7.68498 19.4843C7.5381 19.4382 7.40418 19.3706 7.28322 19.2813C7.16226 19.192 7.05282 19.084 6.9549 18.9573H6.88146V19.2899C6.88146 19.6182 6.88146 19.925 6.88146 20.2101C6.88146 20.4981 6.88146 20.7976 6.88146 21.1086L5.78418 21.1432ZM7.78434 18.6117C8.02338 18.6117 8.21922 18.5498 8.37186 18.4259C8.52738 18.2992 8.64114 18.1365 8.71314 17.9378C8.78514 17.739 8.82114 17.5259 8.82114 17.2984C8.82114 17.0594 8.78226 16.8419 8.7045 16.6461C8.62962 16.4474 8.51442 16.289 8.3589 16.1709C8.20626 16.0499 8.01186 15.9894 7.7757 15.9894C7.65762 15.9894 7.54386 16.0082 7.43442 16.0456C7.32498 16.0802 7.22274 16.132 7.1277 16.2011C7.03266 16.2674 6.95058 16.3494 6.88146 16.4474V18.0587C6.9477 18.171 7.02402 18.269 7.11042 18.3525C7.19682 18.436 7.29618 18.5008 7.4085 18.5469C7.52082 18.5901 7.6461 18.6117 7.78434 18.6117Z" fill="white"/>
<path d="M12.4136 19.5578C12.0162 19.5578 11.6864 19.4526 11.4243 19.2424C11.1623 19.0322 10.9679 18.7542 10.8411 18.4086C10.7144 18.063 10.6511 17.6901 10.6511 17.2898C10.6511 16.8635 10.7187 16.4805 10.8541 16.1406C10.9895 15.7979 11.1896 15.5286 11.4546 15.3328C11.7195 15.1341 12.0435 15.0347 12.4266 15.0347C12.608 15.0347 12.7736 15.0592 12.9234 15.1082C13.0731 15.1542 13.2056 15.2205 13.3208 15.3069C13.4389 15.3904 13.5383 15.4883 13.6189 15.6006H13.7139V15.1859C13.7139 14.8317 13.7139 14.4846 13.7139 14.1448C13.7139 13.8021 13.7139 13.4608 13.7139 13.121L14.8112 13.0173C14.8112 13.36 14.8112 13.7099 14.8112 14.067C14.8112 14.4213 14.8112 14.7942 14.8112 15.1859V17.5749C14.8112 17.932 14.8112 18.256 14.8112 18.5469C14.8112 18.8378 14.8112 19.1387 14.8112 19.4498H13.8738L13.809 18.8752H13.7269C13.6175 19.025 13.4979 19.1502 13.3683 19.251C13.2387 19.3518 13.0947 19.4282 12.9363 19.48C12.7779 19.5318 12.6037 19.5578 12.4136 19.5578ZM12.8111 18.6117C12.9493 18.6117 13.0746 18.5901 13.1869 18.5469C13.2992 18.5008 13.3986 18.436 13.485 18.3525C13.5714 18.269 13.6477 18.171 13.7139 18.0587V16.4474C13.6448 16.3494 13.5627 16.2674 13.4677 16.2011C13.3755 16.132 13.2733 16.0802 13.161 16.0456C13.0515 16.0082 12.9378 15.9894 12.8197 15.9894C12.5835 15.9894 12.3877 16.0499 12.2322 16.1709C12.0795 16.289 11.9643 16.4474 11.8866 16.6461C11.8117 16.8419 11.7743 17.0594 11.7743 17.2984C11.7743 17.5259 11.8103 17.739 11.8823 17.9378C11.9571 18.1365 12.0709 18.2992 12.2235 18.4259C12.3762 18.5498 12.572 18.6117 12.8111 18.6117Z" fill="white"/>
<path d="M16.2457 19.4498C16.2457 19.1387 16.2457 18.8378 16.2457 18.5469C16.2457 18.256 16.2457 17.932 16.2457 17.5749V17.1429C16.2457 16.9701 16.2457 16.7843 16.2457 16.5856C16.2457 16.3869 16.2457 16.181 16.2457 15.9678C16.2457 15.7518 16.2457 15.5358 16.2457 15.3198C16.2457 15.101 16.2457 14.8864 16.2457 14.6762C16.2457 14.3478 16.2904 14.0757 16.3797 13.8597C16.4718 13.6437 16.5957 13.4723 16.7512 13.3456C16.9096 13.2189 17.0881 13.1296 17.2869 13.0778C17.4885 13.0259 17.7016 13 17.9262 13C18.0501 13 18.1667 13.0058 18.2761 13.0173C18.3885 13.0288 18.4907 13.0446 18.5829 13.0648C18.675 13.085 18.7513 13.1066 18.8118 13.1296L18.7211 14.0411C18.6232 14.0037 18.5209 13.9734 18.4144 13.9504C18.3078 13.9274 18.1998 13.9158 18.0904 13.9158C17.8254 13.9158 17.6267 13.9806 17.4942 14.1102C17.3646 14.237 17.2998 14.4342 17.2998 14.7021C17.2998 14.7712 17.2998 14.8518 17.2998 14.944C17.2998 15.0333 17.2998 15.101 17.2998 15.147L17.343 15.3458V17.5749C17.343 17.932 17.343 18.256 17.343 18.5469C17.343 18.8378 17.343 19.1387 17.343 19.4498H16.2457ZM15.5027 15.9808V15.147H18.6217V15.9808C18.3453 15.9808 18.0774 15.9808 17.8182 15.9808C17.5619 15.9808 17.3027 15.9808 17.0406 15.9808H15.5027Z" fill="white"/>
<path d="M13.5372 0L20.8947 7.3575H15.101C14.2373 7.3575 13.5371 6.65733 13.5371 5.79361V0H13.5372Z" fill="#FF7D74"/>
</svg>
