<svg width="24" height="24" viewBox="0 0 24 24" fill="none" xmlns="http://www.w3.org/2000/svg">
<path d="M20.5115 24H4.12572C4.024 24 3.92645 23.9596 3.85452 23.8877C3.7826 23.8157 3.74219 23.7182 3.74219 23.6165V0.383531C3.74219 0.281812 3.7826 0.18426 3.85452 0.112334C3.92645 0.0404076 4.024 0 4.12572 0L13.5376 0L20.8951 7.3575V23.6165C20.895 23.7182 20.8546 23.8157 20.7827 23.8877C20.7108 23.9596 20.6132 24 20.5115 24Z" fill="#F9A64C"/>
<path d="M5.72363 20.8934C5.72363 20.5823 5.72363 20.2756 5.72363 19.9732C5.72363 19.6708 5.72363 19.3411 5.72363 18.9839V16.8931C5.72363 16.5676 5.72363 16.2379 5.72363 15.9038C5.72363 15.5697 5.72363 15.2342 5.72363 14.8972L6.70427 14.8411L6.73451 15.4199H6.82955C6.91595 15.2932 7.02107 15.1823 7.14491 15.0873C7.27163 14.9894 7.41563 14.9145 7.57691 14.8627C7.73819 14.8108 7.91531 14.7849 8.10827 14.7849C8.49131 14.7849 8.81531 14.8843 9.08027 15.083C9.34523 15.2788 9.54539 15.5481 9.68075 15.8908C9.81611 16.2307 9.88379 16.6137 9.88379 17.0399C9.88379 17.4403 9.82043 17.8132 9.69371 18.1588C9.56699 18.5044 9.37259 18.7823 9.11051 18.9926C8.84843 19.2028 8.51867 19.3079 8.12123 19.3079C7.93979 19.3079 7.77419 19.2835 7.62443 19.2345C7.47755 19.1884 7.34363 19.1207 7.22267 19.0315C7.10171 18.9422 6.99227 18.8342 6.89435 18.7075H6.82091V19.0401C6.82091 19.3684 6.82091 19.6751 6.82091 19.9603C6.82091 20.2483 6.82091 20.5478 6.82091 20.8588L5.72363 20.8934ZM7.72379 18.3619C7.96283 18.3619 8.15867 18.2999 8.31131 18.1761C8.46683 18.0494 8.58059 17.8867 8.65259 17.6879C8.72459 17.4892 8.76059 17.2761 8.76059 17.0486C8.76059 16.8095 8.72171 16.5921 8.64395 16.3963C8.56907 16.1975 8.45387 16.0391 8.29835 15.9211C8.14571 15.8001 7.95131 15.7396 7.71515 15.7396C7.59707 15.7396 7.48331 15.7583 7.37387 15.7958C7.26443 15.8303 7.16219 15.8822 7.06715 15.9513C6.97211 16.0175 6.89003 16.0996 6.82091 16.1975V17.8089C6.88715 17.9212 6.96347 18.0191 7.04987 18.1027C7.13627 18.1862 7.23563 18.251 7.34795 18.2971C7.46027 18.3403 7.58555 18.3619 7.72379 18.3619Z" fill="white"/>
<path d="M10.8368 20.8934C10.8368 20.5823 10.8368 20.2756 10.8368 19.9732C10.8368 19.6708 10.8368 19.3411 10.8368 18.9839V16.8931C10.8368 16.5676 10.8368 16.2379 10.8368 15.9038C10.8368 15.5697 10.8368 15.2342 10.8368 14.8972L11.8174 14.8411L11.8476 15.4199H11.9427C12.0291 15.2932 12.1342 15.1823 12.258 15.0873C12.3848 14.9894 12.5288 14.9145 12.69 14.8627C12.8513 14.8108 13.0284 14.7849 13.2214 14.7849C13.6044 14.7849 13.9284 14.8843 14.1934 15.083C14.4584 15.2788 14.6585 15.5481 14.7939 15.8908C14.9292 16.2307 14.9969 16.6137 14.9969 17.0399C14.9969 17.4403 14.9336 17.8132 14.8068 18.1588C14.6801 18.5044 14.4857 18.7823 14.2236 18.9926C13.9616 19.2028 13.6318 19.3079 13.2344 19.3079C13.0529 19.3079 12.8873 19.2835 12.7376 19.2345C12.5907 19.1884 12.4568 19.1207 12.3358 19.0315C12.2148 18.9422 12.1054 18.8342 12.0075 18.7075H11.934V19.0401C11.934 19.3684 11.934 19.6751 11.934 19.9603C11.934 20.2483 11.934 20.5478 11.934 20.8588L10.8368 20.8934ZM12.8369 18.3619C13.076 18.3619 13.2718 18.2999 13.4244 18.1761C13.58 18.0494 13.6937 17.8867 13.7657 17.6879C13.8377 17.4892 13.8737 17.2761 13.8737 17.0486C13.8737 16.8095 13.8348 16.5921 13.7571 16.3963C13.6822 16.1975 13.567 16.0391 13.4115 15.9211C13.2588 15.8001 13.0644 15.7396 12.8283 15.7396C12.7102 15.7396 12.5964 15.7583 12.487 15.7958C12.3776 15.8303 12.2753 15.8822 12.1803 15.9513C12.0852 16.0175 12.0032 16.0996 11.934 16.1975V17.8089C12.0003 17.9212 12.0766 18.0191 12.163 18.1027C12.2494 18.1862 12.3488 18.251 12.4611 18.2971C12.5734 18.3403 12.6987 18.3619 12.8369 18.3619Z" fill="white"/>
<path d="M17.6367 19.3079C17.3285 19.3079 17.0665 19.2604 16.8505 19.1654C16.6345 19.0675 16.4689 18.9134 16.3537 18.7031C16.2385 18.4929 16.1809 18.2193 16.1809 17.8823C16.1809 17.6721 16.1809 17.4604 16.1809 17.2473C16.1809 17.0342 16.1809 16.8167 16.1809 16.595C16.1809 16.3703 16.1809 16.1414 16.1809 15.9081C16.1809 15.6748 16.1809 15.4329 16.1809 15.1823C16.1809 14.8684 16.1809 14.579 16.1809 14.314C16.1809 14.0491 16.1809 13.7783 16.1809 13.5019L17.2652 13.2988C17.2652 13.5177 17.2652 13.7251 17.2652 13.9209C17.2652 14.1139 17.2652 14.3111 17.2652 14.5127C17.2652 14.7143 17.2652 14.9375 17.2652 15.1823V17.554C17.2652 17.8334 17.3185 18.0451 17.425 18.1891C17.5345 18.3302 17.7073 18.4007 17.9434 18.4007C18.0413 18.4007 18.1465 18.3835 18.2588 18.3489C18.374 18.3143 18.482 18.2611 18.5828 18.1891L18.6562 19.0919C18.5842 19.138 18.4935 19.1769 18.3841 19.2086C18.2775 19.2403 18.1594 19.2647 18.0298 19.282C17.9002 19.2993 17.7692 19.3079 17.6367 19.3079ZM15.4421 15.731V14.8972H18.626V15.731C18.3495 15.731 18.0716 15.731 17.7922 15.731C17.5129 15.731 17.2421 15.731 16.9801 15.731H15.4421Z" fill="white"/>
<path d="M13.5372 0L20.8947 7.3575H15.101C14.2373 7.3575 13.5371 6.65733 13.5371 5.79361V0H13.5372Z" fill="#FAB76F"/>
</svg>
