<svg width="24" height="24" viewBox="0 0 24 24" fill="none" xmlns="http://www.w3.org/2000/svg">
<path d="M20.5105 24H4.12474C4.02302 24 3.92547 23.9596 3.85354 23.8877C3.78162 23.8157 3.74121 23.7182 3.74121 23.6165V0.383531C3.74121 0.281812 3.78162 0.18426 3.85354 0.112334C3.92547 0.0404076 4.02302 0 4.12474 0L13.5366 0L20.8941 7.3575V23.6165C20.8941 23.7182 20.8537 23.8157 20.7817 23.8877C20.7098 23.9596 20.6122 24 20.5105 24Z" fill="#D0DFF2"/>
<path d="M8.36057 19.3079C8.05241 19.3079 7.79033 19.2604 7.57433 19.1654C7.35834 19.0675 7.19274 18.9134 7.07754 18.7031C6.96234 18.4929 6.90474 18.2193 6.90474 17.8823C6.90474 17.6721 6.90474 17.4604 6.90474 17.2473C6.90474 17.0342 6.90474 16.8167 6.90474 16.595C6.90474 16.3703 6.90474 16.1414 6.90474 15.9081C6.90474 15.6748 6.90474 15.4329 6.90474 15.1823C6.90474 14.8684 6.90474 14.579 6.90474 14.314C6.90474 14.0491 6.90474 13.7783 6.90474 13.5019L7.98905 13.2988C7.98905 13.5177 7.98905 13.7251 7.98905 13.9209C7.98905 14.1139 7.98905 14.3111 7.98905 14.5127C7.98905 14.7143 7.98905 14.9375 7.98905 15.1823V17.554C7.98905 17.8334 8.04233 18.0451 8.14889 18.1891C8.25833 18.3302 8.43113 18.4007 8.66729 18.4007C8.76521 18.4007 8.87033 18.3835 8.98265 18.3489C9.09785 18.3143 9.20585 18.2611 9.30665 18.1891L9.38009 19.0919C9.30809 19.138 9.21737 19.1769 9.10793 19.2086C9.00137 19.2403 8.88329 19.2647 8.75369 19.282C8.62409 19.2993 8.49305 19.3079 8.36057 19.3079ZM6.16602 15.731V14.8972H9.34985V15.731C9.07337 15.731 8.79545 15.731 8.51609 15.731C8.23673 15.731 7.96601 15.731 7.70393 15.731H6.16602Z" fill="#93A7C0"/>
<path d="M9.79886 19.1999C9.91694 19.0012 10.0206 18.8284 10.1099 18.6815C10.1992 18.5347 10.2827 18.3964 10.3605 18.2668C10.4411 18.1343 10.5261 17.9947 10.6153 17.8478L11.2158 16.8585L11.2201 17.1134L10.624 16.1889C10.5318 16.042 10.444 15.9052 10.3605 15.7785C10.2769 15.6518 10.1905 15.5179 10.1013 15.3767C10.012 15.2356 9.90974 15.0758 9.79454 14.8972L11.0214 14.8627C11.128 15.0441 11.223 15.2111 11.3065 15.3638C11.3901 15.5164 11.4793 15.6763 11.5744 15.8433L11.9373 16.4783H12.0193L12.3736 15.8476C12.4629 15.6806 12.5478 15.5251 12.6285 15.3811C12.712 15.2342 12.8013 15.0729 12.8963 14.8972H14.1448C14.0181 15.0844 13.9101 15.2457 13.8208 15.3811C13.7315 15.5164 13.6465 15.6446 13.5659 15.7655C13.4881 15.8836 13.4003 16.0175 13.3024 16.1673L12.6846 17.0961L12.6285 16.8499L13.3153 17.8607C13.4593 18.071 13.599 18.2755 13.7344 18.4742C13.8697 18.67 14.0339 18.9119 14.2269 19.1999H12.9136C12.8157 19.0329 12.7264 18.8803 12.6457 18.742C12.5651 18.6038 12.4758 18.4497 12.3779 18.2798L11.9761 17.5886H11.8941L11.5355 18.2495C11.4405 18.4223 11.3541 18.5793 11.2763 18.7204C11.1985 18.8615 11.1107 19.0214 11.0128 19.1999H9.79886Z" fill="#93A7C0"/>
<path d="M16.7728 19.3079C16.4646 19.3079 16.2025 19.2604 15.9865 19.1654C15.7705 19.0675 15.6049 18.9134 15.4897 18.7031C15.3745 18.4929 15.3169 18.2193 15.3169 17.8823C15.3169 17.6721 15.3169 17.4604 15.3169 17.2473C15.3169 17.0342 15.3169 16.8167 15.3169 16.595C15.3169 16.3703 15.3169 16.1414 15.3169 15.9081C15.3169 15.6748 15.3169 15.4329 15.3169 15.1823C15.3169 14.8684 15.3169 14.579 15.3169 14.314C15.3169 14.0491 15.3169 13.7783 15.3169 13.5019L16.4012 13.2988C16.4012 13.5177 16.4012 13.7251 16.4012 13.9209C16.4012 14.1139 16.4012 14.3111 16.4012 14.5127C16.4012 14.7143 16.4012 14.9375 16.4012 15.1823V17.554C16.4012 17.8334 16.4545 18.0451 16.5611 18.1891C16.6705 18.3302 16.8433 18.4007 17.0795 18.4007C17.1774 18.4007 17.2825 18.3835 17.3948 18.3489C17.51 18.3143 17.618 18.2611 17.7188 18.1891L17.7923 19.0919C17.7203 19.138 17.6296 19.1769 17.5201 19.2086C17.4136 19.2403 17.2955 19.2647 17.1659 19.282C17.0363 19.2993 16.9052 19.3079 16.7728 19.3079ZM14.5782 15.731V14.8972H17.762V15.731C17.4856 15.731 17.2076 15.731 16.9283 15.731C16.6489 15.731 16.3782 15.731 16.1161 15.731H14.5782Z" fill="#93A7C0"/>
<path d="M13.5372 0L20.8947 7.3575H15.101C14.2373 7.3575 13.5371 6.65733 13.5371 5.79361V0H13.5372Z" fill="#E5F1FE"/>
</svg>
