<svg width="24" height="24" viewBox="0 0 24 24" fill="none" xmlns="http://www.w3.org/2000/svg">
<path d="M20.5105 24H4.12474C4.02302 24 3.92547 23.9596 3.85354 23.8877C3.78162 23.8157 3.74121 23.7182 3.74121 23.6165V0.383531C3.74121 0.281812 3.78162 0.18426 3.85354 0.112334C3.92547 0.0404076 4.02302 0 4.12474 0L13.5366 0L20.8941 7.3575V23.6165C20.8941 23.7182 20.8537 23.8157 20.7817 23.8877C20.7098 23.9596 20.6122 24 20.5105 24Z" fill="#72CB56"/>
<path d="M6.6469 19.2001C6.76498 19.0013 6.86866 18.8285 6.95794 18.6817C7.04722 18.5348 7.13074 18.3965 7.2085 18.2669C7.28914 18.1345 7.3741 17.9948 7.46338 17.8479L8.06386 16.8586L8.06818 17.1135L7.47202 16.189C7.37986 16.0421 7.29202 15.9053 7.2085 15.7786C7.12498 15.6519 7.03858 15.518 6.9493 15.3769C6.86002 15.2357 6.75778 15.0759 6.64258 14.8973L7.86946 14.8628C7.97602 15.0442 8.07106 15.2113 8.15458 15.3639C8.2381 15.5165 8.32738 15.6764 8.42242 15.8434L8.7853 16.4785H8.86738L9.22162 15.8477C9.3109 15.6807 9.39586 15.5252 9.4765 15.3812C9.56002 15.2343 9.6493 15.073 9.74434 14.8973H10.9928C10.8661 15.0845 10.7581 15.2458 10.6688 15.3812C10.5795 15.5165 10.4946 15.6447 10.4139 15.7657C10.3362 15.8837 10.2483 16.0177 10.1504 16.1674L9.53266 17.0962L9.4765 16.85L10.1634 17.8609C10.3074 18.0711 10.4471 18.2756 10.5824 18.4743C10.7178 18.6701 10.8819 18.9121 11.0749 19.2001H9.76162C9.6637 19.033 9.57442 18.8804 9.49378 18.7421C9.41314 18.6039 9.32386 18.4498 9.22594 18.2799L8.82418 17.5887H8.7421L8.38354 18.2497C8.2885 18.4225 8.2021 18.5794 8.12434 18.7205C8.04658 18.8617 7.95874 19.0215 7.86082 19.2001H6.6469Z" fill="white"/>
<path d="M11.8496 19.2001C11.8496 18.889 11.8496 18.5881 11.8496 18.2972C11.8496 18.0063 11.8496 17.6823 11.8496 17.3252V14.9362C11.8496 14.582 11.8496 14.2335 11.8496 13.8908C11.8496 13.5452 11.8496 13.2053 11.8496 12.8713L12.9469 12.7676C12.9469 13.1103 12.9469 13.4602 12.9469 13.8173C12.9469 14.1716 12.9469 14.5445 12.9469 14.9362V17.3252C12.9469 17.6823 12.9469 18.0063 12.9469 18.2972C12.9469 18.5881 12.9469 18.889 12.9469 19.2001H11.8496Z" fill="white"/>
<path d="M15.4879 19.3081C15.2892 19.3081 15.0962 19.2951 14.909 19.2692C14.7247 19.2433 14.5519 19.2073 14.3906 19.1612C14.2294 19.1151 14.0882 19.0633 13.9673 19.0057L14.0407 18.038C14.1703 18.1157 14.3114 18.1834 14.4641 18.241C14.6196 18.2957 14.7809 18.3389 14.9479 18.3706C15.115 18.3994 15.2806 18.4138 15.4447 18.4138C15.5714 18.4138 15.6866 18.4037 15.7903 18.3836C15.894 18.3605 15.9761 18.3159 16.0366 18.2497C16.0999 18.1834 16.1316 18.0855 16.1316 17.9559C16.1316 17.8666 16.0999 17.7932 16.0366 17.7356C15.9761 17.678 15.8753 17.6247 15.7342 17.5757C15.593 17.5268 15.4001 17.4706 15.1553 17.4073C14.9105 17.3439 14.6988 17.2633 14.5202 17.1653C14.3446 17.0645 14.2092 16.9335 14.1142 16.7722C14.022 16.6109 13.9759 16.4021 13.9759 16.1458C13.9759 15.7138 14.1142 15.3797 14.3906 15.1436C14.6671 14.9074 15.0401 14.7893 15.5095 14.7893C15.7082 14.7893 15.9012 14.8052 16.0884 14.8369C16.2756 14.8657 16.4455 14.9045 16.5982 14.9535C16.7537 14.9996 16.8833 15.0471 16.987 15.0961L16.9092 16.0681C16.7767 15.9845 16.6327 15.9154 16.4772 15.8607C16.3217 15.8031 16.1719 15.7599 16.0279 15.7311C15.8839 15.7023 15.7644 15.6879 15.6694 15.6879C15.5628 15.6879 15.4663 15.7023 15.3799 15.7311C15.2935 15.757 15.2244 15.8017 15.1726 15.865C15.1236 15.9284 15.0991 16.0105 15.0991 16.1113C15.0991 16.1948 15.1193 16.2682 15.1596 16.3316C15.1999 16.3921 15.2762 16.4482 15.3886 16.5001C15.5038 16.5519 15.6722 16.6095 15.894 16.6729C16.1935 16.7564 16.4426 16.8442 16.6414 16.9364C16.843 17.0285 16.9942 17.1509 17.095 17.3036C17.1958 17.4533 17.2462 17.6578 17.2462 17.917C17.2462 18.1935 17.1857 18.4354 17.0647 18.6428C16.9466 18.8501 16.758 19.0129 16.4988 19.1309C16.2425 19.249 15.9055 19.3081 15.4879 19.3081Z" fill="white"/>
<path d="M13.5372 0L20.8947 7.3575H15.101C14.2373 7.3575 13.5371 6.65733 13.5371 5.79361V0H13.5372Z" fill="#8ED577"/>
</svg>
