<?xml version="1.0" standalone="no"?>
<!DOCTYPE svg PUBLIC "-//W3C//DTD SVG 1.1//EN" "http://www.w3.org/Graphics/SVG/1.1/DTD/svg11.dtd" >
<svg xmlns="http://www.w3.org/2000/svg">
<metadata>Generated by IcoMoon</metadata>
<defs>
<font id="icon" horiz-adv-x="1024">
<font-face units-per-em="1024" ascent="960" descent="-64" />
<missing-glyph horiz-adv-x="1024" />
<glyph unicode="&#x20;" horiz-adv-x="512" d="" />
<glyph unicode="&#xe900;" glyph-name="image" d="M717.468 896h-410.929c-133.739 0-242.54-108.8-242.54-242.54v-410.921c0-133.739 108.8-242.54 242.54-242.54h410.929c133.732 0 242.532 108.8 242.532 242.54v410.921c0 133.739-108.8 242.54-242.532 242.54zM907.473 242.54c0-104.774-85.238-190.012-190.012-190.012h-410.921c-104.774 0-190.012 85.238-190.012 190.012v2.305l150.659 138.684c4.267 3.924 10.948 3.924 15.215 0.008l115.278-105.833c13.369-12.279 31.395-18.275 49.475-16.476 18.064 1.806 34.548 11.267 45.231 25.952l203.436 279.736c2.702 3.706 6.4 4.477 8.363 4.61 1.962 0.117 5.731-0.148 8.884-3.481l194.396-204.837v-120.658zM907.473 439.505l-156.297 164.69c-13.076 13.782-31.434 20.972-50.417 19.739-18.956-1.238-36.238-10.761-47.411-26.124l-203.443-279.736c-2.577-3.543-6.105-4.392-7.98-4.571-1.869-0.187-5.489-0.062-8.713 2.904l-115.278 105.825c-24.22 22.246-62.132 22.207-86.32-0.054l-115.083-105.934v337.223c0 104.774 85.238 190.012 190.012 190.012h410.929c104.766 0 190.004-85.238 190.004-190.012zM314.093 744.212c-50.892 0-92.308-41.412-92.308-92.316 0-50.892 41.412-92.308 92.308-92.308 50.9 0 92.308 41.412 92.308 92.308 0.008 50.9-41.408 92.316-92.308 92.316zM314.093 612.13c-21.926 0-39.781 17.839-39.781 39.781 0 21.926 17.846 39.781 39.781 39.781s39.781-17.839 39.781-39.781-17.839-39.781-39.781-39.781z" />
<glyph unicode="&#xe901;" glyph-name="send" d="M840.25 889.197l-722.82-298.882c-31.628-13.332-53.43-44.078-53.43-79.916 0-31.465 16.806-59.004 41.928-74.136l0.389-0.217 247.076-146.652 146.652-247.076c15.349-25.511 42.888-42.317 74.353-42.317 35.837 0 66.584 21.801 79.704 52.861l0.211 0.569 298.882 722.82c4.297 9.836 6.803 21.304 6.803 33.347 0 23.827-9.78 45.365-25.55 60.823l-0.016 0.015c-15.474 15.779-37.010 25.563-60.838 25.563-12.050 0-23.51-2.499-33.903-7.016l0.549 0.211zM904.76 796.302l-298.935-722.839c-5.268-12.408-17.35-20.958-31.432-20.958-12.354 0-23.174 6.579-29.145 16.435l-0.083 0.149-139.665 235.283 184.337 184.357c4.747 4.747 7.688 11.309 7.688 18.559 0 14.492-11.748 26.238-26.238 26.238-7.25 0-13.803-2.939-18.559-7.688l-184.337-184.337-235.283 139.665c-10.003 6.051-16.594 16.875-16.594 29.232 0 14.079 8.539 26.156 20.724 31.339l0.222 0.083 722.839 298.882c3.813 1.601 8.246 2.538 12.895 2.538 18.803 0 34.047-15.245 34.047-34.047 0-4.649-0.929-9.082-2.617-13.12l0.083 0.225z" />
<glyph unicode="&#xe902;" glyph-name="send-alt" d="M840.25 889.196l-722.819-298.882c-31.628-13.332-53.43-44.078-53.43-79.916 0-31.465 16.806-59.004 41.928-74.136l0.389-0.217 223.801-132.839 222.617 222.63c4.747 4.747 11.309 7.688 18.559 7.688 14.492 0 26.238-11.748 26.238-26.238 0-7.25-2.94-13.804-7.688-18.559l-222.63-222.617 132.839-223.801c15.349-25.511 42.888-42.317 74.353-42.317 35.837 0 66.584 21.801 79.704 52.861l0.211 0.569 298.882 722.819c4.297 9.836 6.804 21.304 6.804 33.348 0 23.828-9.78 45.365-25.55 60.823l-0.016 0.015c-15.474 15.779-37.010 25.564-60.838 25.564-12.050 0-23.51-2.499-33.903-7.016l0.549 0.211z" />
<glyph unicode="&#xe903;" glyph-name="camera-video" d="M76.8 611.199c0 60.090 48.71 108.8 108.8 108.8v0h408c0.005 0 0.010 0 0.015 0 55.063 0 100.572-40.904 107.797-93.985l0.062-0.561 169.184 75.182c6.511 2.975 14.126 4.709 22.142 4.709 30.039 0 54.384-24.342 54.4-54.377v-405.935c-0.026-30.024-24.371-54.35-54.4-54.35-7.998 0-15.589 1.724-22.426 4.823l0.342-0.139-169.236 75.182c-7.293-53.642-52.799-94.546-107.865-94.546-0.005 0-0.011 0-0.016 0h-407.999c-60.090 0-108.8 48.71-108.8 108.8v0 326.4zM702.4 329.679l190.4-84.644v405.934l-190.4-84.644v-236.64zM185.6 665.599c-30.042 0-54.4-24.358-54.4-54.4v0-326.4c0-30.042 24.358-54.4 54.4-54.4v0h408c30.042 0 54.4 24.358 54.4 54.4v0 326.4c0 30.042-24.358 54.4-54.4 54.4v0h-408z" />
<glyph unicode="&#xe904;" glyph-name="play" d="M863.942 362.044c-4.297-4.408-20.506-23.256-35.608-38.76-88.549-97.508-319.549-257.107-440.455-305.825-18.362-7.834-64.78-24.396-89.583-25.459-23.766 0-46.425 5.472-68.039 16.567-26.949 15.504-48.569 39.9-60.415 68.704-7.625 19.987-19.469 79.8-19.469 80.863-11.844 65.436-18.362 171.761-18.362 289.251 0 111.95 6.518 213.944 16.216 280.363 1.111 1.062 12.959 75.39 25.911 100.854 23.766 46.512 70.19 75.39 119.867 75.39h4.297c32.351-1.14 100.398-30.018 100.398-31.086 114.389-48.792 340.055-200.562 430.755-301.416 0 0 25.541-25.914 36.645-42.102 17.328-23.256 25.911-52.061 25.911-80.863 0-32.148-9.697-62.093-28.063-86.488z" />
<glyph unicode="&#xe905;" glyph-name="reply" d="M74.953 493.033l335.783 335.786c23.506 23.502 63.693 6.857 63.693-26.38v-149.406c213.702-8.885 402.189-154.391 461.927-361.467 19.954-69.125 24.929-126.008 23.355-187.236-0.203-7.182-0.253-9.262-0.253-10.767 0-37.909-49.982-51.661-69.37-19.081-41.563 69.839-88.775 123.802-140.493 163.696-93.498 72.115-190.84 92.992-275.156 84.56v-191.868c0-33.237-40.187-49.884-63.693-26.377l-335.786 335.784c-14.572 14.572-14.572 38.194-0.003 52.768zM399.813 220.937v133.782c0 17.096 11.614 31.999 28.185 36.177 4.539 1.144 12.075 2.643 22.31 4.078 105.687 14.788 228.459-7.96 344.857-97.722 28.628-22.085 55.898-47.742 81.649-77.134l-0.568 2.984c-2.972 15.32-6.782 31.138-11.582 47.773-53.261 184.611-227.422 312.017-420.277 307.86-3.261-0.059-4.464-0.082-5.975-0.135-21.098-0.726-38.596 16.179-38.596 37.291v96.472l-245.712-245.709 245.711-245.712z" />
<glyph unicode="&#xe906;" glyph-name="forward" d="M966.894 494.873l-349.495 349.497c-24.466 24.462-66.293 7.137-66.293-27.458v-155.507c-222.428-9.247-418.611-160.695-480.788-376.226-20.763-71.947-25.943-131.154-24.306-194.882 0.206-7.476 0.258-9.64 0.258-11.207 0-39.457 52.022-53.771 72.205-19.861 43.261 72.691 92.398 128.858 146.228 170.38 97.316 75.059 198.632 96.79 286.396 88.012v-199.703c0-34.595 41.828-51.92 66.293-27.455l349.495 349.495c15.169 15.166 15.169 39.754 0.006 54.922zM628.768 211.666v139.244c0 17.794-12.088 33.305-29.337 37.655-4.725 1.19-12.569 2.751-23.22 4.244-110.003 15.392-237.791-8.284-358.935-101.712-29.797-22.987-58.18-49.692-84.986-80.284l0.591 3.106c3.094 15.946 7.060 32.41 12.056 49.723 55.429 192.149 236.701 324.758 437.436 320.431 3.395-0.061 4.646-0.086 6.219-0.141 21.96-0.756 40.175 16.839 40.175 38.813v100.412l255.74-255.743-255.74-255.746z" />
<glyph unicode="&#xe908;" glyph-name="select" d="M107.624 723.323c-22.001 0-39.855 17.62-39.855 39.334v39.333c0 65.059 53.651 118.006 119.572 118.006h39.855c22.001 0 39.855-17.62 39.855-39.333s-17.854-39.334-39.855-39.334h-39.855c-21.964 0-39.855-17.663-39.855-39.333v-39.333c0-21.714-17.854-39.334-39.855-39.334zM825.008 723.323c-22.001 0-39.857 17.62-39.857 39.334v39.333c0 21.675-17.898 39.333-39.857 39.333h-39.857c-22.001 0-39.854 17.62-39.854 39.334s17.85 39.333 39.854 39.333h39.857c65.926 0 119.569-52.947 119.569-118.006v-39.333c0-21.714-17.85-39.334-39.854-39.334zM726.606 841.529h-539.006c0.059 39.235 0.014 17.577 0.014 39.235s-0.085 0-0.059 39.235h539.053c0-39.235 0-17.577 0-39.235s0 0 0-39.235zM666.694 133.531h-479.077c-0.054 39.231-0.029 17.574-0.029 39.231 0 21.662 0.017 0-0.036 39.237h479.143c0-39.237 0-17.574 0-39.237 0-21.657 0 0 0-39.231zM227.195 133.299h-39.855c-65.926 0-119.572 52.95-119.572 118.006v39.336c0 21.712 17.854 39.33 39.855 39.33s39.855-17.617 39.855-39.33v-39.336c0-21.675 17.898-39.336 39.855-39.336h39.855c22.001 0 39.855-17.617 39.855-39.33s-17.854-39.336-39.855-39.336zM107.589 271c-21.981 0 0 0-39.826 0v530.998c39.826 0 17.844 0 39.826 0s0 0 39.826 0v-530.999c-39.826 0-17.844 0-39.826 0zM826.192 271c-21.983 0 0 0-39.826 0v560.499c39.826 0 37.906 0 59.889 0-24.654 0 19.763 38.649 19.763-42.771v-517.729c-39.826 0-17.844 0-39.826 0zM948.25 214.794l-390.209 419.074c-5.087 5.463-11.829 8.485-19.070 8.485-14.895 0-26.971-12.972-26.971-28.967v-608.422c0-15.993 12.076-28.964 26.971-28.964 7.282 0 14.147 3.065 19.402 8.84l162.030 180.457h208.863c14.895 0 26.971 12.971 26.971 28.969 0 7.64-2.893 15.104-7.986 20.524z" />
<glyph unicode="&#xe909;" glyph-name="smile" d="M845.921 781.879c-184.136 184.156-483.721 184.156-667.824 0.043-184.136-184.11-184.117-483.71 0.019-667.851 184.084-184.101 483.667-184.101 667.792 0.036 184.116 184.11 184.11 483.689 0.016 667.773zM794.401 165.596c-155.709-155.709-409.077-155.729-564.789-0.020-155.742 155.735-155.728 409.13 0 564.837 155.709 155.699 409.065 155.718 564.811-0.019 155.709-155.709 155.688-409.101-0.020-564.799zM335.861 575.803c0 30.474 24.717 55.195 55.195 55.195 30.468 0 55.187-24.707 55.187-55.195 0-30.493-24.719-55.201-55.187-55.201-30.474 0-55.195 24.708-55.195 55.201zM586.126 575.803c0 30.474 24.733 55.195 55.208 55.195 30.469 0 55.188-24.707 55.188-55.195 0-30.493-24.708-55.201-55.188-55.201s-55.208 24.708-55.208 55.201zM716.608 349.752c-34.205-79.101-114.313-130.211-204.063-130.211-91.686 0-172.265 51.366-205.289 130.868-5.66 13.611 0.794 29.238 14.421 34.899 3.345 1.38 6.816 2.037 10.237 2.037 10.469 0 20.399-6.188 24.664-16.468 24.717-59.508 85.936-97.94 155.967-97.94 68.445 0 129.302 38.458 155.047 98.007 5.859 13.539 21.574 19.777 35.102 13.909 13.535-5.869 19.768-21.574 13.914-35.102z" />
<glyph unicode="&#xe90a;" glyph-name="user" d="M201.397 616.287c0-103.101 83.879-186.983 186.983-186.983s186.983 83.879 186.983 186.983-83.878 186.983-186.983 186.983c-103.101 0-186.983-83.88-186.983-186.983zM276.192 616.287c0 61.854 50.337 112.192 112.192 112.192s112.192-50.337 112.192-112.192c0-61.854-50.337-112.192-112.192-112.192s-112.192 50.337-112.192 112.192zM724.957 130.126c0 144.314-117.468 261.776-261.776 261.776h-149.591c-144.35 0-261.776-117.463-261.776-261.776v-37.395h74.794v37.395c0 103.102 83.88 186.987 186.983 186.987h149.591c103.097 0 186.983-83.883 186.983-186.987v-37.395h74.796v37.395zM564.977 499.938c0-80.187 65.238-145.431 145.431-145.431 80.187 0 145.431 65.243 145.431 145.431 0 80.19-65.243 145.431-145.431 145.431-80.194 0-145.431-65.241-145.431-145.431zM623.149 499.938c0 48.11 39.149 87.259 87.259 87.259s87.259-39.149 87.259-87.259c0-48.11-39.149-87.259-87.259-87.259s-87.259 39.149-87.259 87.259zM972.185 121.816c0 112.243-91.361 203.604-203.604 203.604h-116.345c-112.276 0 0 54.070 0-58.173-80.187 0 0 80.187 0 0h116.345c80.187 0 145.431-65.243 145.431-145.431v-29.086h58.173v29.086z" />
<glyph unicode="&#xe90b;" glyph-name="attch" d="M922.057 569.677c-14.618 14.539-38.26 14.476-52.796-0.14l-448.8-451.217c-58.221-58.225-152.793-58.225-211.126 0.084-58.289 58.319-58.289 152.885 0.008 211.184l462.081 464.503c36.352 36.351 95.451 36.351 131.907-0.082 36.443-36.445 36.443-95.54-0.011-131.997l-382.786-382.786c-0.025-0.028-0.044-0.053-0.074-0.080-14.586-14.506-38.15-14.481-52.702 0.069-14.581 14.581-14.581 38.207 0 52.78l184.771 184.811c14.581 14.586 14.581 38.22-0.005 52.797s-38.22 14.578-52.796-0.006l-184.771-184.805c-43.734-43.733-43.734-114.64 0.004-158.378 43.737-43.733 114.641-43.733 158.379 0 0.053 0.053 0.092 0.106 0.14 0.155l382.636 382.638c65.617 65.613 65.617 171.987 0 237.602-65.622 65.578-171.989 65.578-237.568 0l-462.081-464.506c-87.387-87.387-87.387-229.221 0.064-316.711 87.504-87.457 229.344-87.457 316.796-0.005l448.865 451.286c14.534 14.623 14.476 38.259-0.14 52.798z" />
<glyph unicode="&#xe90c;" glyph-name="ph_airplane" d="M671.545-0.019c-2.108 0-4.211 0.209-6.281 0.623l-153.719 30.746-153.72-30.746c-4.643-0.93-9.434-0.819-14.028 0.329s-8.877 3.298-12.538 6.302c-3.662 2.999-6.612 6.775-8.637 11.055-2.026 4.284-3.076 8.96-3.076 13.692v96c0 4.203 0.827 8.367 2.435 12.25 1.608 3.878 3.965 7.407 6.937 10.381l54.628 54.626v107.712l-281.72-56.346c-4.643-0.93-9.434-0.819-14.028 0.329s-8.877 3.298-12.538 6.302c-3.662 2.999-6.612 6.775-8.637 11.055-2.026 4.284-3.076 8.96-3.076 13.692v96c0 5.943 1.655 11.767 4.779 16.823s7.594 9.139 12.909 11.797l302.352 151.18 0.408 204.268c0.009 33.948 13.502 66.502 37.513 90.5 24.012 23.999 56.571 37.476 90.517 37.468 33.95-0.009 66.505-13.502 90.505-37.513 23.996-24.011 37.474-56.571 37.466-90.519l0.418-204.2 302.349-151.18c5.316-2.658 9.788-6.741 12.911-11.797s4.779-10.88 4.779-16.823v-96c0-4.736-1.050-9.408-3.076-13.692-2.027-4.279-4.975-8.055-8.636-11.055-3.665-3.004-7.945-5.154-12.54-6.302s-9.387-1.259-14.029-0.329l-281.719 56.346v-107.849l53.884-54.652c5.905-5.99 9.212-14.063 9.212-22.473v-96c0-8.486-3.371-16.623-9.374-22.626-5.999-6.003-14.14-9.374-22.626-9.374zM511.545 95.981c2.108 0 4.211-0.205 6.281-0.619l121.719-24.35v43.849l-53.888 54.652c-5.901 5.99-9.207 14.063-9.207 22.468v160c0 4.736 1.050 9.412 3.076 13.692 2.022 4.279 4.975 8.055 8.636 11.059 3.661 2.999 7.945 5.154 12.535 6.298 4.595 1.148 9.387 1.263 14.029 0.333l281.719-56.35v37.193l-302.31 151.159c-5.308 2.65-9.771 6.724-12.894 11.767s-4.779 10.855-4.791 16.786l-0.457 224c0.004 8.405-1.647 16.728-4.86 24.495s-7.923 14.824-13.862 20.77c-5.939 5.946-12.992 10.664-20.757 13.884-7.761 3.22-16.085 4.879-24.491 4.884-8.401 0.004-16.725-1.647-24.491-4.859-7.77-3.212-14.827-7.923-20.77-13.863-5.948-5.94-10.667-12.993-13.884-20.756-3.221-7.763-4.881-16.084-4.885-24.489l-0.448-224.064c-0.013-5.932-1.673-11.743-4.796-16.786s-7.586-9.122-12.894-11.772l-302.31-151.151v-37.193l281.72 56.35c4.643 0.93 9.435 0.815 14.030-0.329 4.594-1.148 8.878-3.302 12.538-6.302 3.661-3.004 6.613-6.78 8.636-11.063 2.027-4.279 3.076-8.956 3.076-13.692v-160c0-4.203-0.828-8.363-2.436-12.245s-3.964-7.411-6.938-10.381l-54.626-54.63v-43.712l121.719 24.35c2.069 0.414 4.173 0.619 6.281 0.619z" />
<glyph unicode="&#xe90d;" glyph-name="ph_bag" d="M832 688.001h-130.718c-7.556 44.736-30.711 85.35-65.361 114.638s-78.554 45.358-123.921 45.358c-45.367 0-89.272-16.070-123.921-45.358s-57.805-69.903-65.359-114.638h-130.72c-16.968-0.019-33.236-6.768-45.234-18.766s-18.747-28.266-18.766-45.234v-511.998c0.019-16.969 6.768-33.237 18.766-45.235s28.266-18.748 45.234-18.765h640c16.969 0.017 33.237 6.767 45.235 18.765s18.748 28.267 18.765 45.235v511.998c-0.017 16.968-6.767 33.236-18.765 45.234s-28.267 18.747-45.235 18.766zM512 784.001c28.369-0.037 55.923-9.481 78.353-26.852s38.464-41.69 45.594-69.148h-247.895c7.131 27.458 23.165 51.777 45.595 69.148s49.984 26.815 78.353 26.852zM832 112.003h-640v511.998h640l0.038-511.998h-0.038z" />
<glyph unicode="&#xe90e;" glyph-name="ph_book-open" d="M896 832h-256c-24.849-0.002-49.357-5.798-71.578-16.927s-41.54-27.285-56.422-47.185c-14.882 19.9-34.202 36.056-56.422 47.185s-46.727 16.925-71.578 16.927h-256c-16.968-0.019-33.236-6.768-45.234-18.766s-18.747-28.266-18.766-45.234v-512c0.019-16.969 6.768-33.237 18.766-45.235s28.266-18.748 45.234-18.765h256c25.452-0.030 49.852-10.15 67.853-28.147 17.997-18.001 28.117-42.402 28.147-67.853 0-8.486 3.371-16.627 9.374-22.626 5.999-6.003 14.14-9.374 22.626-9.374s16.627 3.371 22.626 9.374c6.003 5.999 9.374 14.14 9.374 22.626 0.030 25.451 10.15 49.852 28.147 67.853 18.001 17.997 42.402 28.117 67.853 28.147h256c16.969 0.017 33.237 6.767 45.235 18.765s18.748 28.267 18.765 45.235v512c-0.017 16.968-6.767 33.236-18.765 45.234s-28.267 18.747-45.235 18.766zM384 256l-256-0.038v512.038h256c25.452-0.029 49.852-10.152 67.853-28.149 17.997-17.997 28.117-42.399 28.147-67.851v-448.077c-27.657 20.851-61.362 32.115-96 32.077zM896 256h-256c-34.641 0.034-68.343-11.23-96-32.090v448.090c0.030 25.452 10.15 49.853 28.147 67.851 18.001 17.997 42.402 28.121 67.853 28.149h256v-512z" />
<glyph unicode="&#xe90f;" glyph-name="ph_calendar" d="M832 800h-96v32c0 8.487-3.371 16.626-9.374 22.627-5.999 6.001-14.14 9.373-22.626 9.373s-16.627-3.372-22.626-9.373c-6.003-6.001-9.374-14.141-9.374-22.627v-32h-320v32c0 8.487-3.372 16.626-9.373 22.627s-14.141 9.373-22.627 9.373c-8.487 0-16.626-3.372-22.627-9.373s-9.373-14.141-9.373-22.627v-32h-96c-16.968-0.019-33.236-6.768-45.234-18.766s-18.747-28.266-18.766-45.234v-640c0.019-16.969 6.768-33.237 18.766-45.235s28.266-18.748 45.234-18.765h640c16.969 0.017 33.237 6.767 45.235 18.765s18.748 28.267 18.765 45.235v640c-0.017 16.968-6.767 33.236-18.765 45.234s-28.267 18.747-45.235 18.766zM192 736h96v-32c0-8.487 3.372-16.626 9.373-22.627s14.141-9.373 22.627-9.373c8.487 0 16.626 3.372 22.627 9.373s9.373 14.141 9.373 22.627v32h320v-32c0-8.487 3.371-16.626 9.374-22.627 5.999-6.001 14.14-9.373 22.626-9.373s16.627 3.372 22.626 9.373c6.003 6.001 9.374 14.141 9.374 22.627v32h96l0.009-128h-640.009v128zM832 96h-640v448h640.013l0.026-448h-0.038zM512 272.013c0-18.982-5.628-37.538-16.171-53.321-10.547-15.787-25.532-28.087-43.068-35.358-17.532-7.27-36.829-9.178-55.447-5.483s-35.724 12.826-49.154 26.24c-5.945 6.012-9.27 14.127-9.249 22.583 0.021 8.452 3.386 16.555 9.36 22.537 5.974 5.978 14.072 9.353 22.525 9.382s16.575-3.285 22.592-9.22c3.723-3.721 8.305-6.464 13.341-7.987 5.036-1.527 10.37-1.788 15.531-0.755 5.162 1.028 9.988 3.311 14.054 6.652s7.245 7.629 9.259 12.493c2.010 4.86 2.795 10.146 2.274 15.381-0.516 5.235-2.317 10.266-5.239 14.639-2.927 4.373-6.882 7.962-11.524 10.441-4.64 2.479-9.821 3.776-15.083 3.776-6.028 0-11.932 1.702-17.034 4.911s-9.195 7.795-11.805 13.227c-2.611 5.431-3.635 11.49-2.953 17.481 0.681 5.986 3.040 11.661 6.805 16.371l22.408 28.011h-45.42c-8.487 0-16.626 3.371-22.627 9.374-6.001 5.999-9.373 14.14-9.373 22.626s3.372 16.627 9.373 22.626c6.001 6.003 14.141 9.374 22.627 9.374h112c6.029 0 11.934-1.702 17.033-4.911 5.103-3.209 9.195-7.795 11.806-13.227s3.635-11.494 2.957-17.481c-0.683-5.99-3.042-11.665-6.805-16.371l-35.477-44.343c13.073-8.777 23.787-20.634 31.198-34.526 7.407-13.892 11.285-29.397 11.29-45.141zM672 416.013v-208c0-8.486-3.371-16.627-9.374-22.626-5.999-6.003-14.14-9.374-22.626-9.374s-16.627 3.371-22.626 9.374c-6.003 5.999-9.374 14.14-9.374 22.626v144l-12.8-9.6c-6.788-5.094-15.326-7.279-23.727-6.080s-15.983 5.692-21.073 12.48c-5.090 6.788-7.279 15.322-6.080 23.723 1.203 8.405 5.692 15.983 12.48 21.077l64 48c4.753 3.567 10.406 5.734 16.324 6.272 5.922 0.533 11.87-0.593 17.186-3.251s9.788-6.741 12.911-11.797c3.123-5.056 4.779-10.88 4.779-16.823z" />
<glyph unicode="&#xe910;" glyph-name="ph_check-circle" d="M711.147 566.097c5.858-6.14 9.041-14.355 8.841-22.839-0.196-8.484-3.755-16.541-9.894-22.4l-234.667-224c-5.952-5.683-13.862-8.853-22.093-8.853-8.226-0.004-16.141 3.166-22.093 8.849l-117.336 112c-3.064 2.893-5.526 6.366-7.244 10.214-1.718 3.853-2.658 8.004-2.767 12.215-0.108 4.215 0.617 8.41 2.134 12.343s3.797 7.526 6.707 10.577c2.911 3.051 6.395 5.495 10.254 7.194s8.014 2.62 12.229 2.705c4.215 0.090 8.405-0.657 12.331-2.193 3.926-1.54 7.509-3.836 10.544-6.763l95.241-90.91 212.57 202.911c6.14 5.859 14.353 9.040 22.839 8.843 8.482-0.197 16.542-3.756 22.4-9.894h0.004zM928 448.001c0-82.278-24.397-162.705-70.11-231.117-45.709-68.412-110.682-121.732-186.692-153.216-76.015-31.488-159.659-39.727-240.354-23.676-80.697 16.051-154.821 55.671-213 113.852s-97.799 132.305-113.85 213.001c-16.052 80.695-7.814 164.339 23.673 240.352s84.806 140.985 153.216 186.695c68.411 45.711 148.839 70.109 231.117 70.109 110.293-0.125 216.030-43.994 294.020-121.981 77.986-77.988 121.856-183.727 121.98-294.019zM864 448.001c0 69.619-20.646 137.675-59.324 195.561s-93.653 103.003-157.973 129.645c-64.316 26.642-135.091 33.613-203.375 20.031-68.281-13.582-131.001-47.107-180.23-96.335s-82.753-111.948-96.335-180.23c-13.582-68.279-6.611-139.055 20.031-203.375s71.759-119.296 129.645-157.973c57.886-38.677 125.941-59.324 195.561-59.324 93.325 0.107 182.797 37.227 248.785 103.215s103.108 155.46 103.215 248.785z" />
<glyph unicode="&#xe911;" glyph-name="ph_check-square-offset" d="M904.002 760.002v-608c-0.017-16.969-6.767-33.237-18.765-45.235s-28.267-18.748-45.235-18.765h-273.459c-8.486 0-16.627 3.371-22.63 9.374-5.999 5.999-9.37 14.14-9.37 22.626s3.371 16.627 9.37 22.626c6.003 6.003 14.144 9.374 22.63 9.374h273.459v608h-608v-365.090c0-8.491-3.372-16.627-9.373-22.63-6.001-5.999-14.141-9.37-22.627-9.37s-16.626 3.371-22.627 9.37c-6.001 6.003-9.373 14.14-9.373 22.63v365.090c0.019 16.968 6.768 33.236 18.766 45.234s28.266 18.747 45.234 18.766h608c16.969-0.019 33.237-6.768 45.235-18.766s18.748-28.266 18.765-45.234zM558.628 382.628c-5.999 6.003-14.14 9.374-22.626 9.374-8.491 0-16.631-3.371-22.63-9.374l-233.37-233.374-105.372 105.374c-6.001 6.003-14.141 9.374-22.628 9.378-8.488 0-16.628-3.375-22.63-9.374-6.002-6.003-9.374-14.14-9.374-22.63 0-8.486 3.371-16.627 9.372-22.626l128-128c2.972-2.974 6.499-5.333 10.383-6.942s8.045-2.436 12.247-2.436c4.203 0 8.365 0.828 12.247 2.436s7.411 3.968 10.383 6.942l255.998 256c2.974 2.97 5.329 6.498 6.938 10.381s2.436 8.043 2.436 12.245c0 4.203-0.828 8.363-2.436 12.245s-3.964 7.411-6.938 10.381z" />
<glyph unicode="&#xe912;" glyph-name="ph_file" d="M864.033 608c0 4.284-0.858 8.525-2.53 12.469s-4.122 7.511-7.202 10.487l-223.667 223.664c-0.738 0.741-1.515 1.444-2.325 2.108-0.188 0.156-0.393 0.288-0.585 0.44-0.627 0.5-1.271 0.976-1.937 1.428-0.175 0.12-0.358 0.216-0.533 0.328-0.704 0.458-1.421 0.887-2.159 1.288-0.128 0.068-0.26 0.12-0.388 0.188-0.794 0.419-1.609 0.805-2.441 1.156-0.090 0.040-0.183 0.064-0.273 0.1-0.875 0.358-1.766 0.678-2.671 0.956l-0.299 0.076c-0.9 0.268-1.809 0.496-2.726 0.684-0.256 0.052-0.521 0.076-0.777 0.12-0.768 0.132-1.536 0.268-2.325 0.348-1.054 0.107-2.121 0.16-3.196 0.16h-384.031c-16.968-0.019-33.236-6.768-45.234-18.766s-18.747-28.266-18.766-45.234v-704c0.019-16.969 6.768-33.237 18.766-45.235s28.266-18.748 45.234-18.765h576.031c16.969 0.017 33.237 6.767 45.235 18.765s18.748 28.267 18.765 45.235v511.36c0.004 0.216 0.034 0.424 0.034 0.64zM639.999 754.744l114.748-114.744h-114.748v114.744zM799.999 96h-576.031v704h352.031v-192c0-8.487 3.371-16.626 9.374-22.627 5.999-6.001 14.14-9.373 22.626-9.373h192l0.043-480h-0.043zM477.354 192c-3.153-0.004-6.276 0.674-9.19 2.001s-5.564 3.268-7.791 5.722l-112.053 123.038c-4.483 4.949-6.996 11.648-6.987 18.628s2.537 13.675 7.032 18.611c4.495 4.932 10.589 7.71 16.946 7.723 6.357 0.009 12.458-2.752 16.965-7.671l95.078-104.393 207.125 227.435c4.518 4.881 10.607 7.603 16.939 7.573 6.336-0.030 12.403-2.803 16.883-7.723 4.476-4.919 7.006-11.58 7.031-18.539 0.026-6.955-2.453-13.641-6.895-18.598l-224.107-246.084c-2.227-2.453-4.873-4.399-7.787-5.722-2.914-1.327-6.037-2.005-9.19-2.001z" />
<glyph unicode="&#xe913;" glyph-name="ph_file-text" d="M864.033 608c0 4.284-0.858 8.525-2.53 12.469s-4.122 7.511-7.202 10.487l-223.667 223.664c-0.738 0.741-1.515 1.444-2.325 2.108-0.188 0.156-0.393 0.288-0.585 0.44-0.627 0.5-1.271 0.976-1.937 1.428-0.175 0.12-0.358 0.216-0.533 0.328-0.704 0.458-1.421 0.887-2.159 1.288-0.128 0.068-0.26 0.12-0.388 0.188-0.794 0.419-1.609 0.805-2.441 1.156-0.090 0.040-0.183 0.064-0.273 0.1-0.875 0.358-1.766 0.678-2.671 0.956l-0.299 0.076c-0.9 0.268-1.809 0.496-2.726 0.684-0.256 0.052-0.521 0.076-0.777 0.12-0.768 0.132-1.536 0.268-2.325 0.348-1.054 0.107-2.121 0.16-3.196 0.16h-384.031c-16.968-0.019-33.236-6.768-45.234-18.766s-18.747-28.266-18.766-45.234v-704c0.019-16.969 6.768-33.237 18.766-45.235s28.266-18.748 45.234-18.765h576.031c16.969 0.017 33.237 6.767 45.235 18.765s18.748 28.267 18.765 45.235v511.36c0.004 0.216 0.034 0.424 0.034 0.64zM639.999 754.744l114.748-114.744h-114.748v114.744zM799.999 96h-576.031v704h352.031v-192c0-8.487 3.371-16.626 9.374-22.627 5.999-6.001 14.14-9.373 22.626-9.373h192l0.043-480h-0.043zM671.999 416c0-8.486-3.371-16.627-9.374-22.626-5.999-6.003-14.14-9.374-22.626-9.374h-255.999c-8.487 0-16.626 3.371-22.627 9.374-6.001 5.999-9.373 14.14-9.373 22.626s3.372 16.627 9.373 22.626c6.001 6.003 14.141 9.374 22.627 9.374h255.999c8.486 0 16.627-3.371 22.626-9.374 6.003-5.999 9.374-14.14 9.374-22.626zM671.999 288c0-8.486-3.371-16.627-9.374-22.626-5.999-6.003-14.14-9.374-22.626-9.374h-255.999c-8.487 0-16.626 3.371-22.627 9.374-6.001 5.999-9.373 14.14-9.373 22.626s3.372 16.627 9.373 22.626c6.001 6.003 14.141 9.374 22.627 9.374h255.999c8.486 0 16.627-3.371 22.626-9.374 6.003-5.999 9.374-14.14 9.374-22.626z" />
<glyph unicode="&#xe914;" glyph-name="ph_file-text-light" d="M856.032 608c0 3.23-0.653 6.428-1.92 9.399s-3.123 5.655-5.457 7.889l-223.825 223.808c-0.512 0.506-1.045 0.989-1.6 1.448-0.149 0.128-0.32 0.24-0.478 0.36-0.461 0.36-0.922 0.72-1.408 1.040-0.145 0.096-0.294 0.176-0.439 0.268-0.516 0.336-1.045 0.652-1.583 0.948-0.098 0.052-0.209 0.096-0.311 0.148-0.593 0.311-1.195 0.598-1.813 0.86-0.068 0.028-0.137 0.048-0.205 0.072-0.657 0.27-1.323 0.51-2.001 0.72l-0.205 0.052c-0.683 0.204-1.37 0.378-2.069 0.52-0.175 0.036-0.358 0.048-0.542 0.080-0.589 0.112-1.182 0.201-1.779 0.268-0.798 0.080-1.596 0.12-2.398 0.12h-384.031c-14.847-0.017-29.081-5.923-39.579-16.421s-16.404-24.733-16.421-39.579v-704c0.017-14.848 5.922-29.082 16.421-39.578 10.498-10.5 24.732-16.405 39.579-16.422h576.031c14.848 0.017 29.082 5.922 39.582 16.422 10.496 10.496 16.401 24.73 16.418 39.578v511.36c0.004 0.216 0.034 0.424 0.034 0.64zM631.998 774.060l142.059-142.060h-142.059v142.060zM799.998 88h-576.031c-2.121 0-4.155 0.845-5.655 2.347-1.5 1.498-2.343 3.533-2.345 5.653v704c0.002 2.121 0.846 4.155 2.345 5.655s3.533 2.343 5.655 2.345h360.031v-200c0-6.365 2.53-12.47 7.031-16.971s10.603-7.029 16.969-7.029h200v-488c0-2.121-0.845-4.156-2.347-5.653-1.498-1.502-3.533-2.347-5.653-2.347zM663.998 416c0-6.366-2.526-12.471-7.027-16.969-4.501-4.501-10.607-7.031-16.973-7.031h-255.999c-6.365 0-12.47 2.53-16.971 7.031-4.501 4.497-7.029 10.603-7.029 16.969s2.528 12.471 7.029 16.969c4.501 4.501 10.605 7.031 16.971 7.031h255.999c6.366 0 12.471-2.53 16.973-7.031 4.501-4.497 7.027-10.603 7.027-16.969zM663.998 288c0-6.366-2.526-12.471-7.027-16.969-4.501-4.501-10.607-7.031-16.973-7.031h-255.999c-6.365 0-12.47 2.53-16.971 7.031-4.501 4.497-7.029 10.603-7.029 16.969s2.528 12.471 7.029 16.969c4.501 4.501 10.605 7.031 16.971 7.031h255.999c6.366 0 12.471-2.53 16.973-7.031 4.501-4.497 7.027-10.603 7.027-16.969z" />
<glyph unicode="&#xe915;" glyph-name="ph_handbag" d="M955.855 119.069l-56.887 512c-1.724 15.66-9.173 30.13-20.911 40.637s-26.944 16.31-42.697 16.296h-134.080c-7.556 44.736-30.711 85.35-65.361 114.638s-78.549 45.358-123.921 45.358c-45.367 0-89.27-16.070-123.919-45.358s-57.805-69.903-65.359-114.638h-134.080c-15.754 0.014-30.959-5.789-42.697-16.296s-19.185-24.977-20.911-40.637l-56.888-512c-0.994-8.947-0.090-18.001 2.653-26.573s7.264-16.469 13.267-23.177c6.003-6.707 13.353-12.075 21.57-15.744 8.217-3.674 17.117-5.572 26.118-5.572h760.492c9.003-0.004 17.903 1.894 26.121 5.568s15.569 9.041 21.572 15.744c6.003 6.707 10.522 14.605 13.265 23.181 2.743 8.572 3.648 17.626 2.654 26.573zM511.998 784.002c28.369-0.037 55.927-9.481 78.357-26.852 22.426-17.371 38.46-41.69 45.594-69.148h-247.897c7.131 27.458 23.166 51.777 45.593 69.148 22.43 17.371 49.984 26.815 78.353 26.852zM131.752 112.004l56.888 511.998h646.72l56.887-511.998h-760.496z" />
<glyph unicode="&#xe916;" glyph-name="ph_identification-card" d="M800 512c0-8.486-3.371-16.627-9.374-22.626-5.999-6.003-14.14-9.374-22.626-9.374h-160c-8.486 0-16.627 3.371-22.626 9.374-6.003 5.999-9.374 14.14-9.374 22.626s3.371 16.627 9.374 22.627c5.999 6.001 14.14 9.373 22.626 9.373h160c8.486 0 16.627-3.372 22.626-9.373 6.003-6 9.374-14.141 9.374-22.627zM768 416h-160c-8.486 0-16.627-3.371-22.626-9.374-6.003-5.999-9.374-14.14-9.374-22.626s3.371-16.627 9.374-22.626c5.999-6.003 14.14-9.374 22.626-9.374h160c8.486 0 16.627 3.371 22.626 9.374 6.003 5.999 9.374 14.14 9.374 22.626s-3.371 16.627-9.374 22.626c-5.999 6.003-14.14 9.374-22.626 9.374zM523.358 295.987c1.050-4.070 1.284-8.307 0.695-12.467s-1.993-8.166-4.126-11.785c-2.138-3.618-4.966-6.78-8.329-9.306-3.358-2.526-7.181-4.365-11.251-5.414-4.070-1.045-8.307-1.284-12.467-0.695s-8.166 1.993-11.785 4.13c-3.618 2.138-6.78 4.966-9.306 8.324-2.526 3.362-4.365 7.185-5.414 11.255-5.333 20.599-17.357 38.848-34.185 51.878-16.831 13.026-37.51 20.096-58.792 20.096s-41.961-7.070-58.79-20.096c-16.829-13.030-28.853-31.279-34.186-51.878-1.041-4.079-2.876-7.91-5.399-11.277s-5.686-6.199-9.307-8.341c-3.62-2.146-7.628-3.554-11.793-4.143-4.166-0.593-8.407-0.358-12.481 0.691-4.075 1.045-7.902 2.889-11.264 5.419s-6.192 5.696-8.328 9.323c-2.136 3.622-3.537 7.633-4.122 11.797-0.585 4.169-0.342 8.41 0.714 12.48 9.733 37.854 33.018 70.818 65.44 92.646-18.18 17.788-30.649 40.589-35.816 65.493s-2.796 50.782 6.81 74.334c9.605 23.553 26.009 43.709 47.119 57.898s45.968 21.766 71.403 21.766c25.435 0 50.294-7.578 71.404-21.766s37.513-34.345 47.117-57.898c9.609-23.552 11.977-49.429 6.81-74.334-5.163-24.905-17.634-47.706-35.814-65.493 32.422-21.824 55.706-54.788 65.442-92.638v0zM368.4 416c12.658 0 25.032 3.755 35.557 10.786s18.728 17.028 23.572 28.723c4.843 11.695 6.11 24.563 3.644 36.975-2.47 12.416-8.567 23.821-17.517 32.772-8.951 8.949-20.355 15.044-32.769 17.514s-25.283 1.202-36.977-3.642c-11.695-4.844-21.69-13.048-28.722-23.57-7.032-10.526-10.786-22.899-10.786-35.558 0.019-16.969 6.768-33.237 18.767-45.235s28.266-18.748 45.233-18.765zM928 736v-576c-0.017-16.969-6.767-33.237-18.765-45.235s-28.267-18.748-45.235-18.765h-704c-16.968 0.017-33.236 6.767-45.234 18.765s-18.747 28.267-18.766 45.235v576c0.019 16.968 6.768 33.236 18.766 45.234s28.266 18.747 45.234 18.766h704c16.969-0.019 33.237-6.768 45.235-18.766s18.748-28.266 18.765-45.234zM864.038 160l-0.038 576h-704v-576h704.038z" />
<glyph unicode="&#xe917;" glyph-name="ph_keyboard" d="M884.567 761.941h-745.132c-17.549-0.020-34.374-7.002-46.783-19.41s-19.39-29.233-19.41-46.783v-495.492c0.020-17.55 7.002-34.375 19.41-46.787 12.409-12.407 29.234-19.389 46.783-19.409h745.132c17.55 0.020 34.375 7.003 46.782 19.409 12.411 12.411 19.389 29.237 19.409 46.787v495.492c-0.020 17.549-6.999 34.373-19.409 46.783-12.407 12.409-29.233 19.39-46.782 19.41zM884.567 200.256h-745.132v495.492h745.132l0.037-495.492h-0.037zM824.050 448.002c0-8.275-3.291-16.214-9.141-22.064-5.854-5.854-13.789-9.141-22.064-9.141h-561.689c-8.276 0-16.213 3.287-22.065 9.141-5.852 5.85-9.14 13.789-9.14 22.064s3.288 16.214 9.14 22.064c5.852 5.854 13.79 9.141 22.065 9.141h561.689c8.275 0 16.21-3.287 22.064-9.141 5.85-5.85 9.141-13.789 9.141-22.064zM824.050 572.82c0-8.276-3.291-16.213-9.141-22.065-5.854-5.852-13.789-9.14-22.064-9.14h-561.689c-8.276 0-16.213 3.287-22.065 9.14s-9.14 13.789-9.14 22.065c0 8.276 3.288 16.213 9.14 22.065s13.79 9.14 22.065 9.14h561.689c8.275 0 16.21-3.288 22.064-9.14 5.85-5.852 9.141-13.79 9.141-22.065zM293.567 323.183c0-8.275-3.288-16.214-9.14-22.064-5.852-5.854-13.79-9.141-22.065-9.141h-31.205c-8.276 0-16.213 3.287-22.065 9.141-5.852 5.85-9.14 13.789-9.14 22.064s3.288 16.214 9.14 22.064c5.852 5.854 13.79 9.141 22.065 9.141h31.205c8.276 0 16.213-3.287 22.065-9.141 5.852-5.85 9.14-13.789 9.14-22.064zM668.026 323.183c0-8.275-3.291-16.214-9.141-22.064-5.854-5.854-13.789-9.141-22.064-9.141h-249.641c-8.276 0-16.213 3.287-22.065 9.141-5.852 5.85-9.14 13.789-9.14 22.064s3.288 16.214 9.14 22.064c5.852 5.854 13.79 9.141 22.065 9.141h249.641c8.275 0 16.21-3.287 22.064-9.141 5.85-5.85 9.141-13.789 9.141-22.064zM824.050 323.183c0-8.275-3.291-16.214-9.141-22.064-5.854-5.854-13.789-9.141-22.064-9.141h-31.205c-8.28 0-16.214 3.287-22.068 9.141-5.85 5.85-9.137 13.789-9.137 22.064s3.287 16.214 9.137 22.064c5.854 5.854 13.789 9.141 22.068 9.141h31.205c8.275 0 16.21-3.287 22.064-9.141 5.85-5.85 9.141-13.789 9.141-22.064z" />
<glyph unicode="&#xe918;" glyph-name="ph_list-plus" d="M96 736.011c0 8.487 3.372 16.626 9.373 22.627s14.141 9.373 22.627 9.373h704c8.486 0 16.627-3.372 22.626-9.373 6.003-6.001 9.374-14.141 9.374-22.627s-3.371-16.626-9.374-22.627c-5.999-6.001-14.14-9.373-22.626-9.373h-704c-8.487 0-16.626 3.372-22.627 9.373s-9.373 14.141-9.373 22.627zM832 528.010h-703.976c-8.487 0-16.626-3.371-22.627-9.37-6.001-6.003-9.373-14.144-9.373-22.63s3.372-16.623 9.373-22.626c6.001-5.999 14.141-9.374 22.627-9.374h703.976c8.486 0 16.627 3.375 22.626 9.374 6.003 6.003 9.374 14.14 9.374 22.626s-3.371 16.627-9.374 22.63c-5.999 5.999-14.14 9.37-22.626 9.37zM544 288.010h-415.976c-8.487 0-16.626-3.371-22.627-9.37-6.001-6.003-9.373-14.144-9.373-22.63s3.372-16.623 9.373-22.626c6.001-5.999 14.141-9.374 22.627-9.374h415.976c8.486 0 16.627 3.375 22.626 9.374 6.003 6.003 9.374 14.14 9.374 22.626s-3.371 16.627-9.374 22.63c-5.999 5.999-14.14 9.37-22.626 9.37zM896 287.989h-64v64c0 8.486-3.371 16.623-9.374 22.626-5.999 6.003-14.14 9.374-22.626 9.374s-16.627-3.371-22.626-9.374c-6.003-6.003-9.374-14.14-9.374-22.626v-64h-64c-8.486 0-16.627-3.371-22.626-9.374-6.003-6.003-9.374-14.14-9.374-22.626s3.371-16.627 9.374-22.63c5.999-5.999 14.14-9.37 22.626-9.37h64v-64c0-8.486 3.371-16.627 9.374-22.63 5.999-5.999 14.14-9.37 22.626-9.37s16.627 3.371 22.626 9.37c6.003 6.003 9.374 14.144 9.374 22.63v64h64c8.486 0 16.627 3.371 22.626 9.37 6.003 6.003 9.374 14.144 9.374 22.63s-3.371 16.623-9.374 22.626c-5.999 6.003-14.14 9.374-22.626 9.374z" />
<glyph unicode="&#xe919;" glyph-name="ph_medal" d="M864 575.899c0.034 59.321-14.925 117.688-43.486 169.681s-69.798 95.923-119.885 127.712c-50.082 31.789-107.388 50.404-166.592 54.118-59.209 3.713-118.389-7.596-172.053-32.878s-100.068-63.715-134.902-111.731c-34.834-48.016-56.969-104.057-64.348-162.917s0.238-118.631 22.142-173.761c21.904-55.125 57.385-103.825 103.148-141.572v-304.653c0-5.453 1.394-10.816 4.051-15.582 2.656-4.762 6.487-8.768 11.127-11.635 4.64-2.871 9.936-4.501 15.385-4.749 5.449-0.243 10.871 0.909 15.749 3.349l177.659 88.836 177.719-88.836c4.881-2.441 10.3-3.593 15.748-3.345 5.449 0.243 10.743 1.877 15.386 4.745 4.638 2.867 8.469 6.874 11.123 11.639 2.658 4.762 4.053 10.125 4.053 15.578v304.691c40.030 32.977 72.265 74.406 94.387 121.314 22.127 46.908 33.596 98.133 33.587 149.996zM224 575.899c0 56.961 16.891 112.643 48.537 160.004s76.625 84.275 129.251 106.073c52.625 21.798 110.532 27.501 166.4 16.389 55.863-11.113 107.183-38.542 147.46-78.819s67.708-91.594 78.818-147.461c11.115-55.866 5.41-113.775-16.388-166.4s-58.714-97.604-106.074-129.25c-47.36-31.646-103.044-48.538-160.004-48.538-76.356 0.085-149.559 30.455-203.552 84.45-53.992 53.99-84.362 127.194-84.448 203.551zM672.025 51.669l-145.719 72.853c-4.446 2.223-9.344 3.379-14.315 3.379-4.966 0-9.869-1.156-14.31-3.379l-145.656-72.845v210.718c49.538-25.31 104.372-38.502 160.001-38.498 55.629 0 110.464 13.205 160 38.519v-210.748zM512 351.898c44.305 0 87.612 13.137 124.45 37.751 36.834 24.614 65.545 59.597 82.5 100.527 16.951 40.934 21.389 85.972 12.745 129.423-8.64 43.452-29.978 83.365-61.303 114.691s-71.241 52.661-114.692 61.304c-43.452 8.643-88.491 4.207-129.42-12.747-40.931-16.954-75.915-45.665-100.528-82.501s-37.751-80.145-37.751-124.448c0.067-59.389 23.688-116.323 65.682-158.32 41.994-41.993 98.93-65.613 158.318-65.681zM512 735.899c31.646 0 62.579-9.384 88.892-26.965s46.818-42.569 58.931-71.806c12.109-29.236 15.279-61.407 9.105-92.444s-21.414-59.547-43.789-81.922c-22.379-22.379-50.889-37.615-81.924-43.789s-63.206-3.004-92.442 9.105c-29.238 12.109-54.227 32.619-71.808 58.927-17.581 26.313-26.965 57.248-26.965 88.893 0.049 42.42 16.922 83.088 46.917 113.083s70.664 46.868 113.083 46.917z" />
<glyph unicode="&#xe91a;" glyph-name="ph_newspaper" d="M348 567.273c0 7.908 3.141 15.492 8.734 21.085s13.178 8.734 21.085 8.734h387.635c7.907 0 15.493-3.141 21.084-8.734 5.595-5.593 8.735-13.178 8.735-21.085s-3.14-15.492-8.735-21.085c-5.591-5.593-13.177-8.734-21.084-8.734h-387.635c-7.908 0-15.492 3.141-21.085 8.734s-8.734 13.178-8.734 21.085zM377.819 418.181h387.635c7.907 0 15.493 3.14 21.084 8.735 5.595 5.591 8.735 13.177 8.735 21.084s-3.14 15.493-8.735 21.084c-5.591 5.595-13.177 8.735-21.084 8.735h-387.635c-7.908 0-15.492-3.14-21.085-8.735-5.593-5.591-8.734-13.177-8.734-21.084s3.141-15.493 8.734-21.084c5.593-5.595 13.178-8.735 21.085-8.735zM377.819 298.908h387.635c7.907 0 15.493 3.14 21.084 8.735 5.595 5.591 8.735 13.177 8.735 21.084s-3.14 15.493-8.735 21.084c-5.591 5.595-13.177 8.735-21.084 8.735h-387.635c-7.908 0-15.492-3.14-21.085-8.735-5.593-5.591-8.734-13.177-8.734-21.084s3.141-15.493 8.734-21.084c5.593-5.595 13.178-8.735 21.085-8.735zM944.365 716.365v-506.908c-0.027-23.717-9.457-46.453-26.227-63.227-16.774-16.77-39.51-26.2-63.227-26.227h-685.819c-23.648 0.027-46.326 9.408-63.084 26.090-16.758 16.686-26.238 39.325-26.37 62.972v417.849c0 7.908 3.14 15.492 8.734 21.085s13.178 8.734 21.085 8.734c7.908 0 15.492-3.141 21.085-8.734s8.734-13.178 8.734-21.085v-417.454c0-7.907 3.141-15.493 8.734-21.084 5.593-5.595 13.178-8.735 21.085-8.735s15.492 3.14 21.085 8.735c5.593 5.591 8.734 13.177 8.734 21.084v506.908c0.019 15.81 6.306 30.971 17.487 42.15s26.34 17.469 42.15 17.487h626.181c15.811-0.019 30.972-6.306 42.151-17.487s17.47-26.34 17.487-42.15zM884.727 716.365h-626.181v-506.908c0.011-10.157-1.718-20.244-5.109-29.819h601.474c7.903 0.009 15.485 3.152 21.076 8.743s8.735 13.172 8.743 21.076v506.908z" />
<glyph unicode="&#xe91b;" glyph-name="ph_newspaper-clipping" d="M864 816h-704c-16.968-0.019-33.236-6.768-45.234-18.766s-18.747-28.266-18.766-45.234v-640c0-5.453 1.395-10.82 4.051-15.582 2.656-4.766 6.486-8.772 11.127-11.639s9.936-4.501 15.385-4.745c5.449-0.247 10.87 0.905 15.749 3.345l113.688 56.841 113.688-56.841c4.443-2.223 9.344-3.379 14.312-3.379s9.869 1.156 14.312 3.379l113.688 56.841 113.69-56.841c4.442-2.223 9.344-3.379 14.31-3.379s9.869 1.156 14.31 3.379l113.69 56.841 113.69-56.841c4.877-2.441 10.3-3.593 15.748-3.345 5.449 0.243 10.743 1.877 15.386 4.745 4.638 2.867 8.469 6.874 11.127 11.639 2.654 4.762 4.049 10.129 4.049 15.582v640c-0.017 16.968-6.767 33.236-18.765 45.234s-28.267 18.747-45.235 18.766zM864 163.776l-81.69 40.845c-4.442 2.223-9.344 3.379-14.31 3.379s-9.869-1.156-14.31-3.379l-113.69-56.841-113.69 56.841c-4.442 2.223-9.344 3.379-14.31 3.379s-9.869-1.156-14.31-3.379l-113.69-56.841-113.688 56.841c-4.443 2.223-9.344 3.379-14.312 3.379s-9.869-1.156-14.312-3.379l-81.688-40.841v588.22h704v-588.224zM544 528c0 8.486 3.371 16.627 9.374 22.627 5.999 6.001 14.14 9.373 22.626 9.373h192c8.486 0 16.627-3.372 22.626-9.373 6.003-6 9.374-14.141 9.374-22.627s-3.371-16.627-9.374-22.626c-5.999-6.003-14.14-9.374-22.626-9.374h-192c-8.486 0-16.627 3.371-22.626 9.374-6.003 5.999-9.374 14.14-9.374 22.626zM544 400c0 8.486 3.371 16.627 9.374 22.626 5.999 6.003 14.14 9.374 22.626 9.374h192c8.486 0 16.627-3.371 22.626-9.374 6.003-5.999 9.374-14.14 9.374-22.626s-3.371-16.627-9.374-22.626c-5.999-6.003-14.14-9.374-22.626-9.374h-192c-8.486 0-16.627 3.371-22.626 9.374-6.003 5.999-9.374 14.14-9.374 22.626zM256 304h192c8.486 0 16.627 3.371 22.626 9.374 6.003 5.999 9.374 14.14 9.374 22.626v256c0 8.487-3.371 16.626-9.374 22.627-5.999 6.001-14.14 9.373-22.626 9.373h-192c-8.487 0-16.626-3.372-22.627-9.373s-9.373-14.141-9.373-22.627v-256c0-8.486 3.372-16.627 9.373-22.626 6.001-6.003 14.141-9.374 22.627-9.374zM288 560h128v-192h-128v192z" />
<glyph unicode="&#xe91c;" glyph-name="ph_train-simple" d="M752 896h-480c-33.936-0.039-66.47-13.537-90.467-37.533s-37.494-56.531-37.533-90.467v-512c0.039-33.937 13.537-66.47 37.533-90.466s56.531-37.495 90.467-37.534h48l-57.6-76.8c-5.092-6.788-7.279-15.326-6.078-23.727s5.689-15.983 12.478-21.073c6.79-5.090 15.324-7.279 23.726-6.080 8.401 1.203 15.982 5.692 21.074 12.48l86.4 115.2h224l86.4-115.2c5.090-6.788 12.672-11.277 21.073-12.48 8.401-1.199 16.939 0.99 23.727 6.080s11.277 12.672 12.48 21.073c1.199 8.401-0.99 16.939-6.080 23.727l-57.6 76.8h48c33.937 0.038 66.47 13.538 90.466 37.534s37.495 56.529 37.534 90.466v512c-0.038 33.936-13.538 66.47-37.534 90.467s-56.529 37.494-90.466 37.533zM272 832h480c16.969-0.019 33.237-6.768 45.235-18.766s18.748-28.266 18.765-45.234v-256h-608v256c0.019 16.968 6.768 33.236 18.766 45.234s28.266 18.747 45.234 18.766zM752 192h-480c-16.968 0.017-33.236 6.767-45.234 18.765s-18.747 28.267-18.766 45.235v192h608v-192c-0.017-16.969-6.767-33.237-18.765-45.235s-28.267-18.748-45.235-18.765zM384 304c0-9.493-2.815-18.773-8.090-26.667s-12.771-14.046-21.542-17.681c-8.771-3.631-18.422-4.582-27.733-2.731s-17.864 6.426-24.577 13.137c-6.713 6.711-11.284 15.266-13.136 24.576-1.852 9.314-0.902 18.961 2.732 27.733s9.785 16.269 17.679 21.542c7.894 5.274 17.174 8.090 26.668 8.090 12.73 0 24.94-5.056 33.941-14.059s14.059-21.21 14.059-33.941zM736 304c0-9.493-2.816-18.773-8.090-26.667s-12.77-14.046-21.542-17.681c-8.768-3.631-18.419-4.582-27.733-2.731-9.31 1.852-17.865 6.426-24.576 13.137s-11.285 15.266-13.137 24.576c-1.852 9.314-0.9 18.961 2.731 27.733 3.635 8.772 9.788 16.269 17.681 21.542s17.173 8.090 26.667 8.090c12.732 0 24.939-5.056 33.941-14.059s14.059-21.21 14.059-33.941z" />
<glyph unicode="&#xe91d;" glyph-name="ph_users" d="M484.122 332.548c39.662 26.346 69.789 64.763 85.92 109.562s17.413 93.603 3.655 139.189c-13.761 45.586-41.828 85.528-80.057 113.92-38.225 28.39-84.576 43.722-132.193 43.722s-93.967-15.329-132.193-43.722c-38.227-28.39-66.297-68.335-80.059-113.92s-12.48-94.39 3.655-139.189c16.131-44.799 46.26-83.218 85.922-109.562-67.613-24.941-126.050-69.841-167.564-128.746-2.266-3.174-3.879-6.764-4.751-10.565s-0.984-7.732-0.329-11.577c0.655-3.842 2.062-7.52 4.144-10.817s4.793-6.149 7.982-8.395c3.186-2.242 6.787-3.836 10.594-4.682s7.74-0.929 11.58-0.252c3.837 0.681 7.506 2.113 10.787 4.213 3.284 2.104 6.118 4.836 8.341 8.037 27.282 38.813 63.502 70.487 105.601 92.355s88.843 33.287 136.285 33.287c47.441 0.004 94.184-11.41 136.285-33.274 42.103-21.868 78.321-53.542 105.609-92.351 2.232-3.182 5.070-5.888 8.347-7.97 3.284-2.082 6.941-3.497 10.769-4.164s7.749-0.571 11.538 0.279c3.793 0.848 7.378 2.436 10.556 4.673s5.88 5.075 7.957 8.36 3.488 6.941 4.151 10.773c0.663 3.828 0.564 7.749-0.292 11.538-0.853 3.793-2.449 7.374-4.686 10.548-41.513 58.897-99.942 103.788-167.546 128.729v-0.004zM198.858 517.113c0 32.158 9.536 63.591 27.402 90.329s43.259 47.578 72.969 59.882c29.709 12.307 62.399 15.525 93.939 9.254s60.509-21.759 83.248-44.496c22.739-22.739 38.225-51.708 44.495-83.248 6.274-31.54 3.055-64.23-9.252-93.941-12.307-29.707-33.145-55.099-59.882-72.967s-58.17-27.403-90.328-27.403c-43.107 0.052-84.432 17.196-114.913 47.677s-47.625 71.807-47.674 114.91zM945.756 162.628c-3.174-2.236-6.755-3.824-10.543-4.673-3.793-0.853-7.71-0.946-11.533-0.283-3.824 0.667-7.48 2.078-10.76 4.155s-6.118 4.782-8.351 7.953c-27.319 38.773-63.546 70.425-105.636 92.282s-88.819 33.294-136.248 33.341c-7.838 0-15.361 3.113-20.905 8.66-5.543 5.543-8.656 13.063-8.656 20.901s3.113 15.361 8.656 20.901c5.546 5.546 13.067 8.66 20.905 8.66 23.217 0.027 46.16 5.026 67.282 14.659 21.126 9.637 39.944 23.681 55.187 41.196 15.238 17.511 26.555 38.092 33.181 60.341 6.622 22.254 8.408 45.666 5.226 68.665s-11.254 45.049-23.664 64.67c-12.417 19.62-28.893 36.351-48.313 49.073-19.424 12.72-41.346 21.134-64.29 24.675-22.948 3.541-46.387 2.125-68.741-4.152-7.537-2.091-15.592-1.109-22.408 2.73s-11.834 10.222-13.948 17.751c-2.117 7.529-1.167 15.59 2.648 22.42 3.811 6.828 10.177 11.869 17.696 14.014 50.855 14.347 105.159 10.058 153.127-12.092 47.973-22.153 86.45-60.712 108.505-108.725 22.054-48.017 26.232-102.329 11.781-153.152-14.455-50.825-46.58-94.818-90.601-124.043 67.605-24.937 126.033-69.833 167.551-128.729 4.513-6.41 6.295-14.35 4.955-22.077-1.34-7.722-5.694-14.601-12.104-19.111z" />
<glyph unicode="&#xe91e;" glyph-name="ph_user-square-duotone" d="M832 832h-640c-16.968-0.019-33.236-6.768-45.234-18.766s-18.747-28.266-18.766-45.234v-640c0.019-16.969 6.768-33.237 18.766-45.235s28.266-18.748 45.234-18.765h640c16.969 0.017 33.237 6.767 45.235 18.765s18.748 28.267 18.765 45.235v640c-0.017 16.968-6.767 33.236-18.765 45.234s-28.267 18.747-45.235 18.766zM384 480c0 25.314 7.507 50.065 21.572 71.113 14.065 21.050 34.057 37.456 57.443 47.144 23.39 9.688 49.126 12.223 73.958 7.284 24.828-4.939 47.637-17.13 65.536-35.031 17.903-17.901 30.093-40.709 35.034-65.537 4.937-24.832 2.402-50.569-7.287-73.958-9.685-23.386-26.091-43.379-47.142-57.442-21.047-14.067-45.798-21.572-71.113-21.572-33.937 0.038-66.47 13.538-90.467 37.534s-37.495 56.529-37.533 90.466zM274.668 128c16.387 40.311 42.716 75.819 76.532 103.206 45.536 36.749 102.287 56.794 160.8 56.794s115.264-20.045 160.798-56.794c33.818-27.388 60.147-62.895 76.535-103.206h-474.665zM832 128h-14.69c-14.238 45.291-38.379 86.844-70.682 121.638-32.299 34.795-71.94 61.961-116.049 79.522 31.407 24.661 54.345 58.505 65.613 96.815 11.273 38.31 10.317 79.181-2.731 116.923s-37.538 70.476-70.063 93.646c-32.525 23.17-71.467 35.621-111.398 35.621s-78.874-12.451-111.398-35.621c-32.525-23.17-57.016-55.904-70.064-93.646s-14.003-78.613-2.732-116.923c11.271-38.31 34.207-72.154 65.614-96.815-44.108-17.562-83.751-44.727-116.050-79.522s-56.442-76.348-70.678-121.638h-14.692v640h640l0.038-640h-0.038z" />
<glyph unicode="&#xe91f;" glyph-name="id_card" d="M499.841 533.333c0 49.109-36.224 85.333-85.332 85.333s-85.333-36.224-85.333-85.333 36.181-85.333 85.333-85.333c49.108 0 85.332 36.224 85.332 85.333zM597.334 576v-85.333h170.667v85.333h-170.667zM640.001 405.333v-85.333h128v85.333h-128zM573.014 277.333h-317.013c0 58.624 71.509 138.667 158.507 138.667s158.507-80.043 158.507-138.667zM853.334 789.333h-682.667c-47.061 0-85.333-35.883-85.333-80v-522.667c0-44.117 38.272-80 85.333-80h682.667c47.061 0 85.333 35.883 85.333 80v522.667c0 44.117-38.272 80-85.333 80zM853.334 192l-682.667 0.469v511.531l682.667-0.469v-511.531z" />
<glyph unicode="&#xe920;" glyph-name="user1" d="M298.667 640c0-117.632 95.701-213.333 213.333-213.333s213.333 95.701 213.333 213.333c0 117.632-95.701 213.333-213.333 213.333s-213.333-95.701-213.333-213.333zM384 640c0 70.571 57.429 128 128 128s128-57.429 128-128c0-70.571-57.429-128-128-128s-128 57.429-128 128zM896 85.334c0 164.651-134.016 298.667-298.667 298.667h-170.667c-164.693 0-298.667-134.016-298.667-298.667v-42.667h85.333v42.667c0 117.632 95.701 213.333 213.333 213.333h170.667c117.632 0 213.333-95.701 213.333-213.333v-42.667h85.333v42.667z" />
<glyph unicode="&#xe921;" glyph-name="user_check" d="M518.272 597.333c0-94.255-76.412-170.667-170.667-170.667-94.257 0-170.667 76.412-170.667 170.667 0 94.257 76.41 170.667 170.667 170.667 94.255 0 170.667-76.41 170.667-170.667 0 0 0-94.255 0 0zM432.939 597.333c0-47.128-38.205-85.333-85.333-85.333s-85.333 38.205-85.333 85.333c0 47.128 38.205 85.333 85.333 85.333s85.333-38.205 85.333-85.333c0 0 0-47.128 0 0zM872.149 584.874l60.245-60.416-243.712-243.286-115.456 115.371 60.331 60.331 55.125-55.125 183.467 183.126zM603.605 127.999c0 141.385-114.615 256-256 256s-256-114.615-256-256h85.333c0 94.255 76.41 170.667 170.667 170.667 94.255 0 170.667-76.412 170.667-170.667h85.333z" />
<glyph unicode="&#xe922;" glyph-name="user_circle" d="M512 362.667c94.255 0 0 0 0 0-94.257 0-170.667 76.412-170.667 170.667 0 94.257 76.41 170.667 170.667 170.667 94.255 0 170.667-76.41 170.667-170.667 0-94.255-76.412-170.667-170.667-170.667zM512 448c47.13 0 85.333 38.204 85.333 85.333s-38.204 85.333-85.333 85.333-85.333-38.205-85.333-85.333c0-47.13 38.204-85.333 85.333-85.333 0 0 47.13 0 0 0zM764.847 104.29c105.425 77.683 0 0 0 0-19.831-14.613-40.977-27.554-63.223-38.609-1.135-0.563-2.278-1.126-3.422-1.681-56.265-27.337-119.445-42.667-186.202-42.667s-129.935 15.33-186.203 42.667c-21.315 10.355-41.638 22.434-60.789 36.049-1.964 1.399-3.916 2.812-5.856 4.241-105.424 77.683-173.819 202.709-173.819 343.71 0 235.642 191.025 426.667 426.667 426.667 235.639 0 426.667-191.025 426.667-426.667 0-141.001-68.395-266.027-173.82-343.71zM735.091 189.653c72.418 62.592 118.242 155.119 118.242 258.347 0 188.513-152.819 341.333-341.333 341.333s-341.333-152.82-341.333-341.333c0-103.228 45.824-195.755 118.241-258.347 43.92 77.811 127.371 130.347 223.092 130.347 95.723 0 179.17-52.535 223.091-130.347 0 0 72.418 62.592 0 0zM663.753 142.17c-28.356 54.938-85.67 92.497-151.753 92.497s-123.395-37.559-151.752-92.497c45.711-22.724 97.241-35.503 151.752-35.503s106.039 12.779 151.753 35.503c0 0-28.356 54.938 0 0z" />
<glyph unicode="&#xe923;" glyph-name="user_minus" d="M512 597.333c0-94.255-76.412-170.667-170.667-170.667-94.257 0-170.667 76.412-170.667 170.667 0 94.257 76.41 170.667 170.667 170.667 94.255 0 170.667-76.41 170.667-170.667 0 0 0-94.255 0 0zM426.667 597.333c0-47.128-38.205-85.333-85.333-85.333s-85.333 38.205-85.333 85.333c0 47.128 38.205 85.333 85.333 85.333s85.333-38.205 85.333-85.333c0 0 0-47.128 0 0zM597.333 469.333v-85.333h341.333v85.333h-341.333zM597.333 127.999c0 141.385-114.615 256-256 256s-256-114.615-256-256h85.333c0 94.255 76.41 170.667 170.667 170.667 94.255 0 170.667-76.412 170.667-170.667h85.333z" />
<glyph unicode="&#xe924;" glyph-name="user_pin" d="M512.001 533.332c-49.067 0-85.333 36.181-85.333 85.333s36.267 85.333 85.333 85.333c49.109 0 85.333-36.181 85.333-85.333s-36.224-85.333-85.333-85.333zM512.001 490.666c94.251 0 170.667-68.779 170.667-153.6v-16.469h-341.333v16.469c0 84.821 76.416 153.6 170.667 153.6zM213.334 874.666h597.333c47.061 0 85.333-38.272 85.333-85.333v-554.667c0-47.061-38.272-85.333-85.333-85.333h-170.667l-128-128-128 128h-170.667c-47.061 0-85.333 38.272-85.333 85.333v554.667c0 47.061 38.272 85.333 85.333 85.333zM512.001 149.332l85.333 85.333h213.419l-0.085 554.667h-597.333v-554.667h213.333l85.333-85.333z" />
<glyph unicode="&#xe925;" glyph-name="user_plus_left" d="M512 597.333c0-94.255 76.412-170.667 170.667-170.667 94.257 0 170.667 76.412 170.667 170.667 0 94.257-76.41 170.667-170.667 170.667-94.255 0-170.667-76.41-170.667-170.667 0 0 0-94.255 0 0zM597.333 597.333c0-47.128 38.205-85.333 85.333-85.333s85.333 38.205 85.333 85.333c0 47.128-38.205 85.333-85.333 85.333s-85.333-38.205-85.333-85.333c0 0 0-47.128 0 0zM213.333 597.333v-128h-128v-85.333h128v-128h85.333v128h128v85.333h-128v128h-85.333zM426.667 127.999c0 141.385 114.615 256 256 256s256-114.615 256-256h-85.333c0 94.255-76.41 170.667-170.667 170.667-94.255 0-170.667-76.412-170.667-170.667h-85.333z" />
<glyph unicode="&#xe926;" glyph-name="user_plus_right" d="M512 613.333c0-94.255-76.412-170.667-170.667-170.667-94.257 0-170.667 76.412-170.667 170.667 0 94.257 76.41 170.667 170.667 170.667 94.255 0 170.667-76.41 170.667-170.667 0 0 0-94.255 0 0zM426.667 613.333c0-47.128-38.205-85.333-85.333-85.333s-85.333 38.205-85.333 85.333c0 47.128 38.205 85.333 85.333 85.333s85.333-38.205 85.333-85.333c0 0 0-47.128 0 0zM810.667 613.333v-128h128v-85.333h-128v-128h-85.333v128h-128v85.333h128v128h85.333zM597.333 143.999c0 141.385-114.615 256-256 256s-256-114.615-256-256h85.333c0 94.255 76.41 170.667 170.667 170.667 94.255 0 170.667-76.412 170.667-170.667h85.333z" />
<glyph unicode="&#xe927;" glyph-name="user_voice" d="M728.533 784.768c56.363-56.448 87.467-131.456 87.467-211.2s-31.104-154.752-87.467-211.2l60.331-60.331c72.533 72.576 112.469 169.003 112.469 271.531s-39.936 198.955-112.469 271.531l-60.331-60.331zM607.829 664.022c24.192-24.107 37.504-56.235 37.504-90.453s-13.312-66.347-37.504-90.454l60.331-60.416c40.277 40.277 62.507 93.824 62.507 150.87s-22.229 110.592-62.507 150.869l-60.331-60.416zM517.333 616.235c0-94.255-76.412-170.667-170.667-170.667-94.257 0-170.667 76.412-170.667 170.667 0 94.257 76.41 170.667 170.667 170.667 94.255 0 170.667-76.41 170.667-170.667 0 0 0-94.255 0 0zM432 616.235c0-47.128-38.205-85.333-85.333-85.333s-85.333 38.205-85.333 85.333c0 47.128 38.205 85.333 85.333 85.333s85.333-38.205 85.333-85.333c0 0 0-47.128 0 0zM602.666 146.901c0 141.385-114.615 256-256 256s-256-114.615-256-256h85.333c0 94.255 76.41 170.667 170.667 170.667 94.255 0 170.667-76.412 170.667-170.667h85.333z" />
<glyph unicode="&#xe928;" glyph-name="user_x" d="M518.25 613.333c0-94.255-76.412-170.667-170.667-170.667-94.257 0-170.667 76.412-170.667 170.667 0 94.257 76.41 170.667 170.667 170.667 94.255 0 170.667-76.41 170.667-170.667 0 0 0-94.255 0 0zM432.917 613.333c0-47.128-38.205-85.333-85.333-85.333s-85.333 38.205-85.333 85.333c0 47.128 38.205 85.333 85.333 85.333s85.333-38.205 85.333-85.333c0 0 0-47.128 0 0zM676.373 284.543l-60.331 60.331 97.835 97.835-97.792 97.791 60.331 60.331 97.835-97.833 97.835 97.833 60.331-60.331-97.835-97.833 97.835-97.835-60.331-60.331-97.877 97.877-97.835-97.835zM603.583 143.999c0 141.385-114.615 256-256 256s-256-114.615-256-256h85.333c0 94.255 76.41 170.667 170.667 170.667 94.255 0 170.667-76.412 170.667-170.667h85.333z" />
<glyph unicode="&#xe929;" glyph-name="bar_bottom" d="M213.334 832c-47.061 0-85.333-38.272-85.333-85.333v-597.333c0-47.061 38.272-85.333 85.333-85.333h597.333c47.061 0 85.333 38.272 85.333 85.333v597.333c0 47.061-38.272 85.333-85.333 85.333h-597.333zM810.71 362.667h-597.376v384h597.333l0.043-384zM213.334 277.333h597.419v-128h-597.419v128z" />
<glyph unicode="&#xe92a;" glyph-name="bar_left" d="M213.334 832c-47.061 0-85.333-38.272-85.333-85.333v-597.333c0-47.061 38.272-85.333 85.333-85.333h597.333c47.061 0 85.333 38.272 85.333 85.333v597.333c0 47.061-38.272 85.333-85.333 85.333h-597.333zM341.334 746.667v-597.333h-128v597.333h128zM426.668 746.667h384l0.085-597.333h-384.085v597.333z" />
<glyph unicode="&#xe92b;" glyph-name="bar_right" d="M213.334 832c-47.061 0-85.333-38.272-85.333-85.333v-597.333c0-47.061 38.272-85.333 85.333-85.333h597.333c47.061 0 85.333 38.272 85.333 85.333v597.333c0 47.061-38.272 85.333-85.333 85.333h-597.333zM597.334 746.667v-597.333h-384v597.333h384zM682.668 746.667h128l0.085-597.333h-128.085v597.333z" />
<glyph unicode="&#xe92c;" glyph-name="bar_top" d="M213.334 832c-47.061 0-85.333-38.272-85.333-85.333v-597.333c0-47.061 38.272-85.333 85.333-85.333h597.333c47.061 0 85.333 38.272 85.333 85.333v597.333c0 47.061-38.272 85.333-85.333 85.333h-597.333zM810.668 618.667h-597.333v128h597.333v-128zM213.334 533.333h597.376l0.043-384h-597.419v384z" />
<glyph unicode="&#xe92d;" glyph-name="code" d="M938.667 448l-256.444 256.444-60.339-60.34 196.105-196.104-196.105-196.105 60.339-60.339 256.444 256.444zM85.333 448l256.444-256.444 60.34 60.339-196.104 196.105 196.104 196.104-60.34 60.34-256.444-256.444z" />
<glyph unicode="&#xe92e;" glyph-name="cylinder" d="M853.333 213.334v448h-2.010c1.25 6.997 2.010 14.080 2.010 21.333 0 109.44-146.735 192-341.333 192-181.703 0-321.612-72.021-339.323-170.667h-2.010v-490.667c0-109.44 146.735-192 341.333-192s341.333 82.56 341.333 192zM246.519 213.334v345.856c61.553-42.368 155.913-68.523 265.481-68.523s203.93 26.155 265.481 68.523v-345.856c0-43.52-103.424-106.667-265.481-106.667s-265.481 63.147-265.481 106.667zM777.481 682.668c0-43.52-103.424-106.667-265.481-106.667s-265.481 63.147-265.481 106.667c0 43.52 103.424 106.667 265.481 106.667s265.481-63.147 265.481-106.667z" />
<glyph unicode="&#xe92f;" glyph-name="data" d="M853.333 685.037c0 102.779-156.288 189.629-341.333 189.629s-341.333-86.851-341.333-189.629v-474.076c0-102.775 156.288-189.628 341.333-189.628s341.333 86.852 341.333 189.628v474.076zM768 685.321c-2.944-23.656-98.517-95.099-256-95.099s-253.056 71.443-256 94.531c2.944 23.656 98.517 95.099 256 95.099s253.056-71.443 256-94.531zM512 495.407c100.821 0 192.896 25.886 256 66.039v-113.16c-2.944-23.659-98.517-95.1-256-95.1s-253.056 71.441-256 94.814v113.446c63.104-40.153 155.179-66.039 256-66.039zM256 324.407c63.104-40.154 155.179-66.035 256-66.035s192.896 25.882 256 66.035v-113.161c-2.944-23.654-98.517-95.1-256-95.1s-253.056 71.445-256 94.814v113.446z" />
<glyph unicode="&#xe930;" glyph-name="terminal" d="M170.667 789.333c-47.061 0-85.333-38.272-85.333-85.333v-512c0-47.061 38.272-85.333 85.333-85.333h682.667c47.061 0 85.333 38.272 85.333 85.333v512c0 47.061-38.272 85.333-85.333 85.333h-682.667zM170.667 704h682.667l0.085-512h-682.752v512zM768 362.667v-85.333h-256v85.333h256zM353.835 435.499l-97.835-97.835 60.331-60.331 158.165 158.165-158.165 158.165-60.331-60.331 97.835-97.835z" />
<glyph unicode="&#xe931;" glyph-name="transfer" d="M853.333 618.667l-213.333 170.667v-127.957h-554.667v-85.333h554.667v-128.043l213.333 170.667zM384 320v128l-213.333-170.667 213.333-170.667v128h554.667v85.333h-554.667z" />
<glyph unicode="&#xe932;" glyph-name="window" d="M853.334 64c47.061 0 85.333 38.272 85.333 85.333v597.333c0 47.061-38.272 85.333-85.333 85.333h-682.667c-47.061 0-85.333-38.272-85.333-85.333v-597.333c0-47.061 38.272-85.333 85.333-85.333h682.667zM170.668 661.333h682.667l0.043-512h-682.709v512z" />
<glyph unicode="&#xe933;" glyph-name="window_check" d="M170.667 832c-47.061 0-85.333-38.272-85.333-85.333v-597.333c0-47.061 38.272-85.333 85.333-85.333h682.667c47.061 0 85.333 38.272 85.333 85.333v597.333c0 47.061-38.272 85.333-85.333 85.333h-682.667zM170.667 661.333h682.667l0.043-512h-682.709v512zM469.333 272.171l-158.167 158.165 60.331 60.331 97.836-97.835 183.168 183.168 60.331-60.331-243.499-243.499z" />
<glyph unicode="&#xe934;" glyph-name="window_close" d="M170.667 832c-47.061 0-85.333-38.272-85.333-85.333v-597.333c0-47.061 38.272-85.333 85.333-85.333h682.667c47.061 0 85.333 38.272 85.333 85.333v597.333c0 47.061-38.272 85.333-85.333 85.333h-682.667zM170.667 661.333h682.667l0.043-512h-682.709v512zM609.835 563.499l-97.835-97.835-97.835 97.835-60.331-60.331 97.835-97.835-97.835-97.835 60.331-60.331 97.835 97.835 97.835-97.835 60.331 60.331-97.835 97.835 97.835 97.835-60.331 60.331z" />
<glyph unicode="&#xe935;" glyph-name="window_code_block" d="M170.667 832c-47.061 0-85.333-38.272-85.333-85.333v-597.333c0-47.061 38.272-85.333 85.333-85.333h682.667c47.061 0 85.333 38.272 85.333 85.333v597.333c0 47.061-38.272 85.333-85.333 85.333h-682.667zM170.667 661.333h682.667l0.085-512h-682.752v512zM238.336 405.333l158.165-158.165 60.331 60.331-97.835 97.835 97.835 97.835-60.331 60.331-158.165-158.165zM567.168 503.168l97.835-97.835-97.835-97.835 60.331-60.331 158.165 158.165-158.165 158.165-60.331-60.331z" />
<glyph unicode="&#xe936;" glyph-name="window_sidebar" d="M170.667 832c-47.061 0-85.333-38.272-85.333-85.333v-597.333c0-47.061 38.272-85.333 85.333-85.333h682.667c47.061 0 85.333 38.272 85.333 85.333v597.333c0 47.061-38.272 85.333-85.333 85.333h-682.667zM170.667 661.333h170.667v-512h-170.667v512zM426.667 661.333h426.667l0.085-512h-426.752v512z" />
<glyph unicode="&#xe937;" glyph-name="window_terminal" d="M853.334 64c47.061 0 85.333 38.272 85.333 85.333v597.333c0 47.061-38.272 85.333-85.333 85.333h-682.667c-47.061 0-85.333-38.272-85.333-85.333v-597.333c0-47.061 38.272-85.333 85.333-85.333h682.667zM170.668 661.333h682.667l0.043-512h-682.709v512zM768.001 320v-85.333h-256v85.333h256zM353.836 392.832l-97.835-97.835 60.331-60.331 158.165 158.165-158.165 158.165-60.331-60.331 97.835-97.835z" />
<glyph unicode="&#xe938;" glyph-name="notification" d="M768.001 512c0 130.987-48.64 240.64-170.667 269.653v93.013h-170.667v-93.013c-122.453-29.013-170.667-138.24-170.667-269.653v-234.667l-85.333-42.667v-85.333h682.667v85.333l-85.333 42.667v234.667c0 0 0 130.987 0 0zM529.068 23.040c-5.547-1.28-11.093-1.707-17.067-1.707-47.36 0-85.333 38.4-85.76 85.333h170.666c0-11.947-2.133-23.040-6.4-33.28-11.093-25.6-33.707-44.373-61.44-50.347 0 0-5.547-1.28 0 0z" />
<glyph unicode="&#xe939;" glyph-name="notification_active" d="M85.973 533.335h85.333c6.4 113.067 58.453 218.452 144.64 280.319l-60.587 61.013c-101.973-78.080-162.986-204.799-169.386-341.332zM938.027 533.335h-85.333c-6.4 113.067-58.453 218.452-144.64 280.319l60.587 61.013c101.973-78.080 162.987-204.799 169.387-341.332zM768.64 512c0 130.987-48.64 240.64-170.667 269.653v93.013h-170.667v-93.013c-122.453-29.013-170.666-138.24-170.666-269.653v-234.667l-85.333-42.667v-85.333h682.666v85.333l-85.333 42.667v234.667c0 0 0 130.987 0 0zM529.707 23.040c-5.547-1.28-11.093-1.707-17.067-1.707-47.36 0-85.333 38.4-85.76 85.333h170.666c0-11.947-2.133-23.040-6.4-33.28-11.093-25.6-33.707-44.373-61.44-50.347 0 0-5.547-1.28 0 0z" />
<glyph unicode="&#xe93a;" glyph-name="notification_deactivated" d="M180.134 809.952l0.056 0.056-0.031 0.031-60.34-60.34 152.198-152.198c-5.289-26.9-7.781-55.628-7.781-85.502v-234.667l-85.333-42.667v-85.333h541.282l123.712-123.712 60.284 60.284-724.046 724.047zM776.236 512c0 130.987-48.64 240.64-170.667 269.653v93.013h-170.667v-93.013c-28.356-6.719-52.732-17.739-73.449-32.34l414.783-414.785v177.472zM520.236 21.333c-47.36 0-85.333 38.4-85.333 85.333h170.667c0-46.933-38.4-85.333-85.333-85.333z" />
<glyph unicode="&#xe93b;" glyph-name="notification_dot" d="M582.221 874.667c-30.4-33.968-48.887-78.825-48.887-128 0-106.039 85.961-192 192-192 13.875 0 27.405 1.472 40.444 4.268 1.498-15.255 2.223-30.934 2.223-46.934v-234.667l85.333-42.667v-85.333h-682.667v85.333l85.333 42.667v234.667c0 131.413 48.213 240.64 170.667 269.653v93.013h155.554zM601.86 780.531c14.848 54.259 64.503 94.135 123.473 94.135 70.694 0 128-57.308 128-128 0-60.711-42.266-111.55-98.978-124.696-9.327-2.161-19.042-3.304-29.022-3.304-70.694 0-128 57.308-128 128 0 11.723 1.574 23.078 4.527 33.865zM512 21.333c-47.36 0-85.333 38.4-85.333 85.333h170.667c0-46.933-38.4-85.333-85.333-85.333z" />
<glyph unicode="&#xe93c;" glyph-name="notification_minus" d="M597.334 781.653c122.027-29.013 170.667-138.667 170.667-269.653v-234.667l85.333-42.667v-85.333h-682.667v85.333l85.333 42.667v234.667c0 131.413 48.213 240.64 170.667 269.653v93.013h170.667v-93.013c0 0 122.027-29.013 0 0zM640.001 490.667h-256v-85.333h256v85.333zM529.068 23.040c27.733 5.973 50.347 24.747 61.44 50.347 4.267 10.24 6.4 21.333 6.4 33.28h-170.666c0.426-46.933 38.4-85.333 85.76-85.333 5.973 0 11.52 0.427 17.067 1.707z" />
<glyph unicode="&#xe93d;" glyph-name="notification_outline" d="M768.001 277.333l85.333-42.667v-85.333h-682.667v85.333l85.333 42.667v234.667c0 131.413 48.64 240.64 170.667 269.653v93.013h170.667v-93.013c122.453-29.013 170.667-138.667 170.667-269.653v-234.667zM512.001 21.333c46.933 0 0 0 0 0-46.933 0-85.333 38.4-85.333 85.333h170.667c0-46.933-38.4-85.333-85.333-85.333zM341.334 234.667h341.333v277.333c0 105.813-42.667 202.667-170.667 202.667s-170.667-96.853-170.667-202.667v-277.333z" />
<glyph unicode="&#xe93e;" glyph-name="notification_outline_dot" d="M554.651 874.666c-26.782-35.655-42.65-79.974-42.65-128 0-10.88 0.815-21.57 2.385-32.012l-2.385 0.012c-128 0-170.667-96.853-170.667-202.667v-277.333h341.333v277.333c0 8.67-0.286 17.28-0.883 25.782 14.059-2.916 28.625-4.448 43.55-4.448 14.391 0 28.446 1.425 42.039 4.141 0.418-8.39 0.627-16.885 0.627-25.474v-234.667l85.333-42.667v-85.333h-682.667v85.333l85.333 42.667v234.667c0 131.413 48.64 240.64 170.667 269.653v93.013h127.983zM601.861 780.534c14.852 54.257 64.503 94.132 123.473 94.132 70.694 0 128-57.308 128-128 0-60.684-42.231-111.505-98.906-124.679-9.348-2.173-19.085-3.321-29.094-3.321-26.799 0-51.674 8.235-72.23 22.312-16.849 11.537-30.797 26.997-40.529 45.064-9.724 18.045-15.241 38.69-15.241 60.624 0 11.724 1.574 23.081 4.527 33.868zM597.334 106.666h-170.667c0-46.933 38.4-85.333 85.333-85.333s85.333 38.4 85.333 85.333z" />
<glyph unicode="&#xe93f;" glyph-name="notification_outline_minus" d="M384.001 490.667h256v-85.333h-256v85.333zM597.334 781.653c122.453-29.013 0 0 0 0v93.013h-170.667v-93.013c-122.027-29.013-170.667-138.24-170.667-269.653v-234.667l-85.333-42.667v-85.333h682.667v85.333l-85.333 42.667v234.667c0 130.987-48.213 240.64-170.667 269.653zM682.668 234.667h-341.333v277.333c0 105.813 42.667 202.667 170.667 202.667s170.667-96.853 170.667-202.667v-277.333zM512.001 21.333c46.933 0 85.333 38.4 85.333 85.333h-170.667c0-46.933 38.4-85.333 85.333-85.333z" />
<glyph unicode="&#xe940;" glyph-name="notification_outline_plus" d="M640.001 490.667h-85.333v85.333h-85.333v-85.333h-85.333v-85.333h85.333v-85.333h85.333v85.333h85.333v85.333zM768.001 512c0 130.987 0 0 0 0v-234.667l85.333-42.667v-85.333h-682.667v85.333l85.333 42.667v234.667c0 131.413 48.64 240.64 170.667 269.653v93.013h170.667v-93.013c122.453-29.013 170.667-138.667 170.667-269.653zM341.334 234.667h341.333v277.333c0 105.813-42.667 202.667-170.667 202.667s-170.667-96.853-170.667-202.667v-277.333zM597.334 106.667c0-46.933-38.4-85.333-85.333-85.333s-85.333 38.4-85.333 85.333h170.667z" />
<glyph unicode="&#xe941;" glyph-name="notification_plus" d="M597.334 781.653c122.027-29.013 0 0 0 0v93.013h-170.667v-93.013c-122.453-29.013-170.667-138.24-170.667-269.653v-234.667l-85.333-42.667v-85.333h682.667v85.333l-85.333 42.667v234.667c0 130.987-48.64 240.64-170.667 269.653zM469.334 320v85.333h-85.333v85.333h85.333v85.333h85.333v-85.333h85.333v-85.333h-85.333v-85.333h-85.333zM529.068 23.040c-5.547-1.28-11.093-1.707-17.067-1.707-47.36 0-85.333 38.4-85.76 85.333h170.666c0-11.947-2.133-23.040-6.4-33.28-11.093-25.6-33.707-44.373-61.44-50.347z" />
<glyph unicode="&#xe942;" glyph-name="dot_01_xs" d="M597.333 448c0-47.128-38.205-85.333-85.333-85.333s-85.333 38.205-85.333 85.333c0 47.128 38.205 85.333 85.333 85.333s85.333-38.205 85.333-85.333z" />
<glyph unicode="&#xe943;" glyph-name="dot_02_s" d="M640 448c0-70.692-57.308-128-128-128s-128 57.308-128 128c0 70.692 57.308 128 128 128s128-57.308 128-128z" />
<glyph unicode="&#xe944;" glyph-name="dot_03_m" d="M682.667 448c0-94.257-76.41-170.667-170.667-170.667s-170.667 76.41-170.667 170.667c0 94.257 76.41 170.667 170.667 170.667s170.667-76.41 170.667-170.667z" />
<glyph unicode="&#xe945;" glyph-name="dot_04_l" d="M725.333 448c0-117.821-95.513-213.333-213.333-213.333s-213.333 95.513-213.333 213.333c0 117.821 95.513 213.333 213.333 213.333s213.333-95.513 213.333-213.333z" />
<glyph unicode="&#xe946;" glyph-name="dot_05_xl" d="M768 448c0-141.385-114.615-256-256-256s-256 114.615-256 256c0 141.385 114.615 256 256 256s256-114.615 256-256z" />
<glyph unicode="&#xe947;" glyph-name="close_big" d="M750.507 746.667l-238.507-238.507-238.507 238.507-60.16-60.16 238.507-238.507-238.507-238.507 60.16-60.16 238.507 238.507 238.507-238.507 60.16 60.16-238.507 238.507 238.507 238.507-60.16 60.16z" />
<glyph unicode="&#xe948;" glyph-name="close_small" d="M665.173 661.333l-153.173-153.173-153.173 153.173-60.16-60.16 153.173-153.173-153.173-153.173 60.16-60.16 153.173 153.173 153.173-153.173 60.16 60.16-153.173 153.173 153.173 153.173-60.16 60.16z" />
<glyph unicode="&#xe949;" glyph-name="hamburger" d="M128 704h768v-85.333h-768v85.333zM896 405.333v85.333h-768v-85.333h768zM896 192v85.333h-768v-85.333h768z" />
<glyph unicode="&#xe94a;" glyph-name="menu_alt_01" d="M128 704h768v-85.333h-768v85.333zM896 405.333v85.333h-768v-85.333h768zM896 192v85.333h-384v-85.333h384z" />
<glyph unicode="&#xe94b;" glyph-name="menu_alt_02" d="M384 704h512v-85.333h-512v85.333zM896 405.333v85.333h-768v-85.333h768zM896 192v85.333h-512v-85.333h512z" />
<glyph unicode="&#xe94c;" glyph-name="menu_alt_03" d="M128 704h512v-85.333h-512v85.333zM896 405.333v85.333h-768v-85.333h768zM640 192v85.333h-512v-85.333h512z" />
<glyph unicode="&#xe94d;" glyph-name="menu_alt_04" d="M512 704h384v-85.333h-384v85.333zM128 405.333h768v85.333h-768v-85.333zM128 192h768v85.333h-768v-85.333z" />
<glyph unicode="&#xe94e;" glyph-name="menu_alt_05" d="M512 192v85.333h-384v-85.333h384zM896 405.333v85.333h-768v-85.333h768zM512 618.667h384v85.333h-384v-85.333z" />
<glyph unicode="&#xe94f;" glyph-name="menu_duo" d="M128 618.667h768v-85.333h-768v85.333zM128 277.333v85.333h768v-85.333h-768z" />
<glyph unicode="&#xe950;" glyph-name="more_horizontal" d="M170.667 448c0-46.933 38.4-85.333 85.333-85.333s85.333 38.4 85.333 85.333c0 46.933-38.4 85.333-85.333 85.333s-85.333-38.4-85.333-85.333zM682.667 448c0-46.933 38.4-85.333 85.333-85.333s85.333 38.4 85.333 85.333c0 46.933-38.4 85.333-85.333 85.333s-85.333-38.4-85.333-85.333zM512 533.333c46.933 0 85.333-38.4 85.333-85.333s-38.4-85.333-85.333-85.333c-46.933 0-85.333 38.4-85.333 85.333s38.4 85.333 85.333 85.333z" />
<glyph unicode="&#xe951;" glyph-name="more_vertical" d="M597.333 704c0 46.933-38.4 85.333-85.333 85.333s-85.333-38.4-85.333-85.333c0-46.933 38.4-85.333 85.333-85.333s85.333 38.4 85.333 85.333zM426.667 448c0-46.933 38.4-85.333 85.333-85.333s85.333 38.4 85.333 85.333c0 46.933-38.4 85.333-85.333 85.333s-85.333-38.4-85.333-85.333zM512 277.333c46.933 0 85.333-38.4 85.333-85.333s-38.4-85.333-85.333-85.333c-46.933 0-85.333 38.4-85.333 85.333s38.4 85.333 85.333 85.333z" />
<glyph unicode="&#xe952;" glyph-name="airplay" d="M128 853.333h768c46.933 0 85.333-38.4 85.333-85.333v-512c0-46.933-38.4-85.333-85.333-85.333h-170.667v85.333h170.667v512h-768v-512h170.667v-85.333h-170.667c-46.933 0-85.333 38.4-85.333 85.333v512c0 46.933 38.4 85.333 85.333 85.333zM512 298.666l256-256h-512l256 256z" />
<glyph unicode="&#xe953;" glyph-name="cast" d="M128 832h768c46.933 0 85.333-38.4 85.333-85.333v-597.333c0-46.933-38.4-85.333-85.333-85.333h-298.667v85.333h298.667v597.333h-768v-128h-85.333v128c0 46.933 38.4 85.333 85.333 85.333zM42.667 64v128c70.827 0 128-57.173 128-128h-128zM42.667 362.667v-85.333c117.76 0 213.333-95.573 213.333-213.333h85.333c0 165.12-133.547 298.667-298.667 298.667zM42.667 448v85.333c258.987 0 469.333-209.92 469.333-469.333h-85.333c0 212.053-171.947 384-384 384z" />
<glyph unicode="&#xe954;" glyph-name="fast_forward" d="M501.334 448l-362.667-256v512l362.667-256zM885.334 448l-362.667-256v512l362.667-256z" />
<glyph unicode="&#xe955;" glyph-name="fast_rewind" d="M138.667 448l362.667 256v-512l-362.667 256zM885.333 192l-362.667 256 362.667 256v-512z" />
<glyph unicode="&#xe956;" glyph-name="pause_circle_outline" d="M554.4 617.6h84.801v-339.2h-84.801v339.2zM384.799 617.6h84.801v-339.2h-84.801v339.2zM511.999 872c-234.258 0-423.999-189.741-423.999-423.999s189.741-423.999 423.999-423.999 424.001 189.738 424.001 423.999-189.741 423.999-424.001 423.999zM511.999 108.801c-186.984 0-339.2 152.217-339.2 339.2s152.217 339.198 339.2 339.198 339.2-152.214 339.2-339.198-152.217-339.2-339.2-339.2z" />
<glyph unicode="&#xe957;" glyph-name="pause_circle_filled" d="M511.999 871.999c-234.258 0-423.999-189.741-423.999-423.999s189.741-423.999 423.999-423.999 424.001 189.738 424.001 423.999-189.741 423.999-424.001 423.999zM469.6 278.399h-84.801v339.2h84.801v-339.2zM639.199 278.399h-84.801v339.2h84.801v-339.2z" />
<glyph unicode="&#xe958;" glyph-name="play_circle_filled" d="M85.333 448c0 235.52 191.147 426.667 426.667 426.667s426.667-191.147 426.667-426.667c0-235.52-191.147-426.667-426.667-426.667s-426.667 191.147-426.667 426.667c0 0 0 235.52 0 0zM682.667 448l-256 192v-384l256 192z" />
<glyph unicode="&#xe959;" glyph-name="play_arrow" d="M277.333 149.333l469.333 298.667-469.333 298.667v-597.333z" />
<glyph unicode="&#xe95a;" glyph-name="play_circle_outline" d="M512 874.667c-235.52 0 0 0 0 0 235.52 0 426.667-191.147 426.667-426.667s-191.147-426.667-426.667-426.667c-235.52 0-426.667 191.147-426.667 426.667s191.147 426.667 426.667 426.667zM426.667 256v384l256-192-256-192zM170.667 448c0-188.16 153.173-341.333 341.333-341.333s341.333 153.173 341.333 341.333c0 188.16-153.173 341.333-341.333 341.333s-341.333-153.173-341.333-341.333c0 0 0-188.16 0 0z" />
<glyph unicode="&#xe95b;" glyph-name="repeat" d="M725.333 661.333h-426.667v-170.667h-85.333v213.333c0 23.564 19.103 42.667 42.667 42.667h469.333v128l170.667-170.667-170.667-170.667v128zM298.667 234.667h426.667v170.667h85.333v-213.333c0-23.565-19.102-42.667-42.667-42.667h-469.333v-128l-170.667 170.667 170.667 170.667v-128z" />
<glyph unicode="&#xe95c;" glyph-name="shuffle" d="M451.84 568.747l-221.013 220.587-60.16-60.16 220.587-220.587 60.587 60.16zM618.667 789.333l87.040-87.040-535.040-535.467 60.16-60.16 535.467 535.040 87.040-87.040v234.667h-234.667zM572.587 327.68l60.16 60.16 133.547-133.547 87.040 87.040v-234.667h-234.667l87.467 87.467-133.547 133.547z" />
<glyph unicode="&#xe95d;" glyph-name="skip_next" d="M618.667 448l-362.667-256v512l362.667-256zM768 192h-85.333v512h85.333v-512z" />
<glyph unicode="&#xe95e;" glyph-name="skip_previous" d="M341.333 704h-85.333v-512h85.333v512zM768 192l-362.667 256 362.667 256v-512z" />
<glyph unicode="&#xe95f;" glyph-name="dashboard" d="M469.333 576h-341.333v256h341.333v-256zM896 405.333h-341.333v426.667h341.333v-426.667zM128 64h341.333v426.667h-341.333v-426.667zM554.667 64v256h341.333v-256h-341.333z" />
<glyph unicode="&#xe960;" glyph-name="dashboard_02" d="M106.667 490.667v298.667h810.667v-298.667h-810.667zM106.667 106.667h256v298.667h-256v-298.667zM448 106.667h469.333v298.667h-469.333v-298.667z" />
<glyph unicode="&#xe961;" glyph-name="grid" d="M341.333 618.667v170.667h-170.667v-170.667h170.667zM597.333 106.667v170.667h-170.667v-170.667h170.667zM170.667 106.667v170.667h170.667v-170.667h-170.667zM341.333 362.667v170.667h-170.667v-170.667h170.667zM426.667 362.667v170.667h170.667v-170.667h-170.667zM682.667 618.667h170.667v170.667h-170.667v-170.667zM426.667 618.667v170.667h170.667v-170.667h-170.667zM853.333 362.667v170.667h-170.667v-170.667h170.667zM682.667 106.667v170.667h170.667v-170.667h-170.667z" />
<glyph unicode="&#xe962;" glyph-name="grid_big" d="M810.667 149.333v256h-256v-256h256zM469.333 149.333v256h-256v-256h256zM810.667 490.667v256h-256v-256h256zM469.333 490.667v256h-256v-256h256z" />
<glyph unicode="&#xe963;" glyph-name="grid_big_round" d="M213.333 618.667c0 70.692 57.308 128 128 128s128-57.308 128-128c0-70.692-57.308-128-128-128s-128 57.308-128 128zM213.333 277.333c0 70.694 57.308 128 128 128s128-57.306 128-128c0-70.694-57.308-128-128-128s-128 57.306-128 128zM682.667 149.333c70.694 0 128 57.306 128 128s-57.306 128-128 128c-70.694 0-128-57.306-128-128s57.306-128 128-128zM554.667 618.667c0 70.692 57.306 128 128 128s128-57.308 128-128c0-70.692-57.306-128-128-128s-128 57.308-128 128z" />
<glyph unicode="&#xe964;" glyph-name="grid_horizontal" d="M597.334 661.333v-170.667h-170.667v170.667h170.667zM853.334 661.333v-170.667h-170.667v170.667h170.667zM341.334 661.333v-170.667h-170.667v170.667h170.667zM597.334 405.333v-170.667h-170.667v170.667h170.667zM853.334 405.333v-170.667h-170.667v170.667h170.667zM341.334 405.333v-170.667h-170.667v170.667h170.667z" />
<glyph unicode="&#xe965;" glyph-name="grid_horizontal_round" d="M512.001 661.333c47.13 0 85.333-38.205 85.333-85.333 0-47.13-38.204-85.333-85.333-85.333s-85.333 38.204-85.333 85.333c0 47.128 38.204 85.333 85.333 85.333zM853.334 661.333v-170.667h-170.667v170.667h170.667zM341.334 661.333v-170.667h-170.667v170.667h170.667zM597.334 405.333v-170.667h-170.667v170.667h170.667zM853.334 405.333v-170.667h-170.667v170.667h170.667zM341.334 405.333v-170.667h-170.667v170.667h170.667z" />
<glyph unicode="&#xe966;" glyph-name="grid_round" d="M256 618.667c47.128 0 85.333 38.205 85.333 85.333s-38.205 85.333-85.333 85.333c-47.128 0-85.333-38.205-85.333-85.333s38.205-85.333 85.333-85.333zM512 106.667c47.13 0 85.333 38.204 85.333 85.333s-38.204 85.333-85.333 85.333c-47.13 0-85.333-38.204-85.333-85.333s38.204-85.333 85.333-85.333zM170.667 192c0 47.13 38.205 85.333 85.333 85.333s85.333-38.204 85.333-85.333c0-47.13-38.205-85.333-85.333-85.333s-85.333 38.204-85.333 85.333zM256 362.667c47.128 0 85.333 38.204 85.333 85.333s-38.205 85.333-85.333 85.333c-47.128 0-85.333-38.204-85.333-85.333s38.205-85.333 85.333-85.333zM426.667 448c0 47.13 38.204 85.333 85.333 85.333s85.333-38.204 85.333-85.333c0-47.13-38.204-85.333-85.333-85.333s-85.333 38.204-85.333 85.333zM682.667 704c0-47.128 38.204-85.333 85.333-85.333s85.333 38.205 85.333 85.333c0 47.128-38.204 85.333-85.333 85.333s-85.333-38.205-85.333-85.333zM426.667 704c0 47.128 38.204 85.333 85.333 85.333s85.333-38.205 85.333-85.333c0-47.128-38.204-85.333-85.333-85.333s-85.333 38.205-85.333 85.333zM768 362.667c47.13 0 85.333 38.204 85.333 85.333s-38.204 85.333-85.333 85.333c-47.13 0-85.333-38.204-85.333-85.333s38.204-85.333 85.333-85.333zM682.667 192c0 47.13 38.204 85.333 85.333 85.333s85.333-38.204 85.333-85.333c0-47.13-38.204-85.333-85.333-85.333s-85.333 38.204-85.333 85.333z" />
<glyph unicode="&#xe967;" glyph-name="grid_small" d="M469.333 661.333v-170.667h-170.667v170.667h170.667zM469.333 405.333v-170.667h-170.667v170.667h170.667zM725.333 661.333v-170.667h-170.667v170.667h170.667zM725.333 405.333v-170.667h-170.667v170.667h170.667z" />
<glyph unicode="&#xe968;" glyph-name="grid_small_round" d="M384 661.333c47.13 0 85.333-38.205 85.333-85.333 0-47.13-38.204-85.333-85.333-85.333s-85.333 38.204-85.333 85.333c0 47.128 38.205 85.333 85.333 85.333zM469.333 405.333v-170.667h-170.667v170.667h170.667zM725.333 661.333v-170.667h-170.667v170.667h170.667zM725.333 405.333v-170.667h-170.667v170.667h170.667z" />
<glyph unicode="&#xe969;" glyph-name="grid_vertical" d="M469.333 533.333v-170.667h-170.667v170.667h170.667zM469.333 789.333v-170.667h-170.667v170.667h170.667zM469.333 277.333v-170.667h-170.667v170.667h170.667zM725.333 533.333v-170.667h-170.667v170.667h170.667zM725.333 789.333v-170.667h-170.667v170.667h170.667zM725.333 277.333v-170.667h-170.667v170.667h170.667z" />
<glyph unicode="&#xe96a;" glyph-name="grid_vertical_round" d="M384 533.333c47.13 0 85.333-38.204 85.333-85.333s-38.204-85.333-85.333-85.333c-47.128 0-85.333 38.204-85.333 85.333s38.205 85.333 85.333 85.333zM469.333 789.333v-170.667h-170.667v170.667h170.667zM469.333 277.333v-170.667h-170.667v170.667h170.667zM725.333 533.333v-170.667h-170.667v170.667h170.667zM725.333 789.333v-170.667h-170.667v170.667h170.667zM725.333 277.333v-170.667h-170.667v170.667h170.667z" />
<glyph unicode="&#xe96b;" glyph-name="cloud-done-symbol" d="M827.733 533.333c-29.867 145.067-157.867 256-315.733 256-123.733 0-230.4-68.267-281.6-170.667-132.267-17.067-230.4-123.733-230.4-256 0-140.8 115.2-256 256-256h554.667c119.467 0 213.333 93.867 213.333 213.333 0 110.933-89.6 204.8-196.267 213.333zM426.667 234.667l-149.333 149.333 59.733 59.733 89.6-89.6 221.867 221.867 59.733-59.733-281.6-281.6z" />
<glyph unicode="&#xe96c;" glyph-name="cloud_check" d="M449.207 367.36l-89.172 89.173-60.16-60.16 149.332-149.333 256.427 256.427-60.16 60.16-196.267-196.267zM512 789.333c159.936 0 0 0 0 0-127.724 0-239.063-70.152-297.588-174.028-121.606-19.866-214.412-125.416-214.412-252.639 0-141.385 114.615-256 256-256h554.667c117.82 0 213.333 95.514 213.333 213.333 0 106.756-78.417 195.2-180.796 210.867-37.026 148.469-171.268 258.466-331.204 258.466zM228.17 531.089l40.463 6.61 20.125 35.719c44.019 78.128 127.561 130.582 223.243 130.582 119.838 0 220.634-82.42 248.405-193.783l13.747-55.108 56.145-8.593c61.35-9.387 108.369-62.537 108.369-126.515 0-70.694-57.306-128-128-128h-554.667c-94.257 0-170.667 76.412-170.667 170.667 0 84.732 61.834 155.187 142.837 168.422z" />
<glyph unicode="&#xe96d;" glyph-name="cloud_close" d="M268.633 537.699l20.125 35.719c44.019 78.128 127.561 130.582 223.243 130.582 119.838 0 220.634-82.42 248.405-193.783l13.747-55.108 56.145-8.593c61.35-9.387 108.369-62.537 108.369-126.515 0-70.694-57.306-128-128-128h-554.667c-94.257 0-170.667 76.412-170.667 170.667 0 84.732 61.834 155.187 142.837 168.422l40.463 6.61zM843.204 530.867c-37.026 148.469-171.268 258.466-331.204 258.466-127.724 0-239.063-70.152-297.588-174.028-121.606-19.866-214.412-125.416-214.412-252.639 0-141.385 114.615-256 256-256h554.667c117.82 0 213.333 95.514 213.333 213.333 0 106.756-78.417 195.2-180.796 210.867 0 0-37.026 148.469 0 0zM597.333 576l60.331-60.331-97.835-97.835 97.835-97.835-60.331-60.331-97.835 97.835-97.835-97.835-60.331 60.331 97.835 97.835-97.835 97.835 60.331 60.331 97.835-97.835 97.835 97.835z" />
<glyph unicode="&#xe96e;" glyph-name="cloud_down" d="M512 789.333c159.936 0 0 0 0 0-127.724 0-239.063-70.152-297.588-174.028-121.606-19.866-214.412-125.416-214.412-252.639 0-141.385 114.615-256 256-256h554.667c117.82 0 213.333 95.514 213.333 213.333 0 106.756-78.417 195.2-180.796 210.867-37.026 148.469-171.268 258.466-331.204 258.466zM228.17 531.089l40.463 6.61 20.125 35.719c44.019 78.128 127.561 130.582 223.243 130.582 119.838 0 220.634-82.42 248.405-193.783l13.747-55.108 56.145-8.593c61.35-9.387 108.369-62.537 108.369-126.515 0-70.694-57.306-128-128-128h-554.667c-94.257 0-170.667 76.412-170.667 170.667 0 84.732 61.834 155.187 142.837 168.422zM682.667 448h-108.8v128h-123.733v-128h-108.8l170.667-170.667 170.667 170.667z" />
<glyph unicode="&#xe96f;" glyph-name="cloud_off" d="M145.673 808.209l-60.34-60.34 129.904-129.904-0.825-1.457c-121.606-19.866-214.412-125.414-214.412-252.638 0-141.385 114.615-256 256-256h469.333l84.079-84.079 60.335 60.339-724.074 724.078zM290.705 542.497l349.295-349.293h-384c-94.257 0-170.667 76.407-170.667 170.667 0 84.732 61.834 155.187 142.837 168.422l62.535 10.204zM396.712 677.849c34.665 17.51 73.838 27.354 115.288 27.354 119.838 0 220.634-82.42 248.405-193.782l13.747-55.108 56.145-8.593c61.35-9.391 108.369-62.541 108.369-126.515 0-50.125-28.813-93.521-70.78-114.53l62.204-62.204-0.218-0.213c56.785 38.332 94.127 103.279 94.127 176.947 0 106.756-78.417 195.2-180.796 210.867-37.026 148.468-171.268 258.465-331.204 258.465-65.207 0-126.147-18.286-177.967-50.009l62.678-62.678z" />
<glyph unicode="&#xe970;" glyph-name="cloud_outline" d="M268.633 537.699l20.125 35.719c44.019 78.128 127.561 130.582 223.243 130.582 119.838 0 220.634-82.42 248.405-193.783l13.747-55.108 56.145-8.593c61.35-9.387 108.369-62.537 108.369-126.515 0-70.694-57.306-128-128-128h-554.667c-94.257 0-170.667 76.412-170.667 170.667 0 84.732 61.834 155.187 142.837 168.422l40.463 6.61zM843.204 530.867c-37.026 148.469-171.268 258.466-331.204 258.466-127.724 0-239.063-70.152-297.588-174.028-121.606-19.866-214.412-125.416-214.412-252.639 0-141.385 114.615-256 256-256h554.667c117.82 0 213.333 95.514 213.333 213.333 0 106.756-78.417 195.2-180.796 210.867 0 0-37.026 148.469 0 0z" />
<glyph unicode="&#xe971;" glyph-name="cloud_up" d="M341.333 405.333h108.8v-128h123.733v128h108.8l-170.667 170.667-170.667-170.667zM512 789.333c159.936 0 0 0 0 0-127.724 0-239.063-70.152-297.588-174.028-121.606-19.866-214.412-125.416-214.412-252.639 0-141.385 114.615-256 256-256h554.667c117.82 0 213.333 95.514 213.333 213.333 0 106.756-78.417 195.2-180.796 210.867-37.026 148.469-171.268 258.466-331.204 258.466zM228.17 531.089l40.463 6.61 20.125 35.719c44.019 78.128 127.561 130.582 223.243 130.582 119.838 0 220.634-82.42 248.405-193.783l13.747-55.108 56.145-8.593c61.35-9.387 108.369-62.537 108.369-126.515 0-70.694-57.306-128-128-128h-554.667c-94.257 0-170.667 76.412-170.667 170.667 0 84.732 61.834 155.187 142.837 168.422z" />
<glyph unicode="&#xe972;" glyph-name="file_blank" d="M849.238 593.663c-2.091 4.523-4.693 8.832-8.363 12.501l-256 256c-3.669 3.669-7.979 6.272-12.501 8.363-1.28 0.597-2.645 0.939-4.011 1.408-3.584 1.195-7.253 1.963-11.051 2.176-0.939 0.085-1.749 0.555-2.645 0.555h-298.667c-47.061 0-85.333-38.272-85.333-85.333v-682.667c0-47.061 38.272-85.333 85.333-85.333h512c47.061 0 85.333 38.272 85.333 85.333v469.333c0 0.896-0.469 1.707-0.555 2.645-0.213 3.755-0.939 7.424-2.133 11.008-0.469 1.365-0.853 2.688-1.408 4.011zM597.334 618.666v110.336l110.336-110.336h-110.336zM256.001 789.332h256v-213.333c0-23.595 19.072-42.667 42.667-42.667h213.333l0.085-426.667h-512.085v682.667z" />
<glyph unicode="&#xe973;" glyph-name="file_find" d="M554.667 874.666h-298.667c-47.061 0-85.333-38.272-85.333-85.333v-682.667c0-47.061 38.272-85.333 85.333-85.333h512c47.061 0 85.333 38.272 85.333 85.333v469.333c0 11.349-4.48 22.187-12.501 30.165l-256 256c-7.979 8.021-18.816 12.501-30.165 12.501zM537.003 789.332l230.997-230.997 0.085-391.424-109.568 109.568c14.933 25.387 24.149 54.656 24.149 86.187 0 94.123-76.544 170.667-170.667 170.667s-170.667-76.544-170.667-170.667c0-94.123 76.544-170.667 170.667-170.667 31.531 0 60.8 9.216 86.187 24.149l109.483-109.483h-451.669v682.667h281.003zM426.667 362.666c0 47.061 38.272 85.333 85.333 85.333s85.333-38.272 85.333-85.333c0-47.061-38.272-85.333-85.333-85.333s-85.333 38.272-85.333 85.333z" />
<glyph unicode="&#xe974;" glyph-name="file_minus" d="M849.238 593.663c-2.091 4.523-4.693 8.832-8.363 12.501l-256 256c-3.669 3.669-7.979 6.272-12.501 8.363-1.28 0.597-2.645 0.939-4.011 1.408-3.584 1.195-7.253 1.963-11.051 2.176-0.939 0.085-1.749 0.555-2.645 0.555h-298.667c-47.061 0-85.333-38.272-85.333-85.333v-682.667c0-47.061 38.272-85.333 85.333-85.333h512c47.061 0 85.333 38.272 85.333 85.333v469.333c0 0.896-0.469 1.707-0.555 2.645-0.213 3.755-0.939 7.424-2.133 11.008-0.469 1.365-0.853 2.688-1.408 4.011zM597.334 618.666v110.336l110.336-110.336h-110.336zM256.001 789.332h256v-213.333c0-23.595 19.072-42.667 42.667-42.667h213.333l0.085-426.667h-512.085v682.667zM384.001 277.332h256v85.333h-256v-85.333z" />
<glyph unicode="&#xe975;" glyph-name="file_new" d="M850.245 590.849c0.132-0.396 0.265-0.794 0.401-1.196 1.195-3.584 1.92-7.253 2.133-11.008 0.038-0.432 0.158-0.837 0.277-1.236 0.141-0.467 0.277-0.926 0.277-1.409v-469.333c0-47.061-38.272-85.333-85.333-85.333h-512c-47.061 0-85.333 38.272-85.333 85.333v682.667c0 47.061 38.272 85.333 85.333 85.333h298.667c0.482 0 0.943-0.137 1.408-0.276 0.401-0.119 0.806-0.239 1.237-0.279 3.797-0.213 7.467-0.981 11.051-2.176 0.427-0.146 0.849-0.28 1.276-0.413 0.93-0.294 1.852-0.584 2.735-0.995 4.523-2.091 8.832-4.693 12.501-8.363l256-256c3.669-3.669 6.272-7.979 8.363-12.501 0.393-0.933 0.7-1.866 1.007-2.814 0 0 0.132-0.396 0 0zM597.334 618.666h110.336l-110.336 110.336v-110.336zM256.001 789.332v-682.667h512.085l-0.085 426.667h-213.333c-23.595 0-42.667 19.072-42.667 42.667v213.333h-256zM469.334 447.999v-85.333h-85.333v-85.333h85.333v-85.333h85.333v85.333h85.333v85.333h-85.333v85.333h-85.333z" />
<glyph unicode="&#xe976;" glyph-name="folder" d="M529.664 746.667l-72.832 72.832c-7.979 8.021-18.859 12.501-30.165 12.501h-256c-47.061 0-85.333-38.272-85.333-85.333v-597.333c0-47.061 38.272-85.333 85.333-85.333h682.667c47.061 0 85.333 38.272 85.333 85.333v512c0 47.061-38.272 85.333-85.333 85.333h-323.669zM170.667 661.333h682.667l0.085-512h-682.752v512z" />
<glyph unicode="&#xe977;" glyph-name="folder_minus" d="M341.334 448v-85.333h341.333v85.333h-341.333zM529.665 746.667h323.669c47.061 0 85.333-38.272 85.333-85.333v-512c0-47.061-38.272-85.333-85.333-85.333h-682.667c-47.061 0-85.333 38.272-85.333 85.333v597.333c0 47.061 38.272 85.333 85.333 85.333h256c11.349 0 22.187-4.48 30.165-12.501l72.832-72.832zM170.668 661.333v-512h682.752l-0.085 512h-682.667z" />
<glyph unicode="&#xe978;" glyph-name="folder_open" d="M127.996 85.333h640c17.067 0 32.512 10.155 39.211 25.856l128 298.667c5.675 13.184 4.309 28.288-3.584 40.277-7.936 11.989-21.291 19.2-35.627 19.2h-42.667v170.667c0 47.061-38.272 85.333-85.333 85.333h-217.6l-97.451 76.245c-7.509 5.888-16.725 9.088-26.283 9.088h-256c-47.061 0-85.333-38.272-85.333-85.333v-597.333h0.299c0-8.192 2.091-16.427 6.741-23.509 7.936-11.947 21.291-19.157 35.627-19.157zM192.721 170.666l91.435 213.333h547.157l-91.435-213.333h-547.157zM767.996 469.333h-512c-17.067 0-32.512-10.155-39.211-25.856l-46.123-107.648v304.171h597.333v-170.667z" />
<glyph unicode="&#xe979;" glyph-name="folder_plus" d="M554.668 576v-128h128v-85.333h-128v-128h-85.333v128h-128v85.333h128v128h85.333zM529.665 746.667h323.669c47.061 0 85.333-38.272 85.333-85.333v-512c0-47.061-38.272-85.333-85.333-85.333h-682.667c-47.061 0-85.333 38.272-85.333 85.333v597.333c0 47.061 38.272 85.333 85.333 85.333h256c11.349 0 22.187-4.48 30.165-12.501l72.832-72.832zM170.668 661.333v-512h682.752l-0.085 512h-682.667z" />
<glyph unicode="&#xe97a;" glyph-name="note" d="M213.333 831.999c-47.061 0-85.333-38.272-85.333-85.333v-597.333c0-47.061 38.272-85.333 85.333-85.333h341.333c5.589 0 11.093 1.109 16.256 3.243s9.899 5.248 13.909 9.259l298.667 298.667c3.669 3.669 6.272 7.979 8.363 12.501 0.597 1.28 0.939 2.603 1.408 3.968 1.195 3.584 1.963 7.253 2.176 11.051 0.085 0.896 0.555 1.749 0.555 2.645v341.333c0 47.061-38.272 85.333-85.333 85.333h-597.333zM810.667 746.666v-298.667h-256c-23.595 0-42.667-19.115-42.667-42.667v-256h-298.667v597.333h597.333zM597.333 362.666h153.003l-153.003-153.003v153.003z" />
<glyph unicode="&#xe97b;" glyph-name="add_to_queue" d="M640 703.999v-128h128v-85.333h-128v-128h-85.333v128h-128v85.333h128v128h85.333zM341.333 874.666h512c47.061 0 85.333-38.272 85.333-85.333v-512c0-47.061-38.272-85.333-85.333-85.333h-512c-47.061 0-85.333 38.272-85.333 85.333v512c0 47.061 38.272 85.333 85.333 85.333zM341.333 789.332v-512h512.085l-0.085 512h-512zM170.667 618.666v-512h512v-85.333h-512c-47.061 0-85.333 38.272-85.333 85.333v512h85.333z" />
<glyph unicode="&#xe97c;" glyph-name="comment" d="M213.334 832c-47.061 0-85.333-38.272-85.333-85.333v-682.667l204.785 153.6c14.771 11.076 32.738 17.067 51.202 17.067h426.679c47.061 0 85.333 38.272 85.333 85.333v426.667c0 47.061-38.272 85.333-85.333 85.333h-597.333zM355.568 320c-18.462 0-36.426-5.986-51.196-17.062l-91.038-68.271v512h597.333v-426.667h-455.1z" />
<glyph unicode="&#xe97d;" glyph-name="comment_check" d="M469.333 381.419l-158.164 158.166 60.331 60.331 97.833-97.836 183.168 183.169 60.331-60.331-243.499-243.499zM213.333 832h597.333c47.061 0 85.333-38.272 85.333-85.333v-426.667c0-47.061-38.272-85.333-85.333-85.333h-426.679c-18.464 0-36.431-5.99-51.202-17.067l-204.785-153.6v682.667c0 47.061 38.272 85.333 85.333 85.333zM355.567 320h455.1v426.667h-597.333v-512l91.038 68.271c14.77 11.076 32.734 17.062 51.196 17.062z" />
<glyph unicode="&#xe97e;" glyph-name="comment_minus" d="M213.334 832c-47.061 0-85.333-38.272-85.333-85.333v-682.667l204.785 153.6c14.771 11.076 32.738 17.067 51.202 17.067h426.679c47.061 0 85.333 38.272 85.333 85.333v426.667c0 47.061-38.272 85.333-85.333 85.333h-597.333zM355.568 320c-18.462 0-36.426-5.986-51.196-17.062l-91.038-68.271v512h597.333v-426.667h-455.1zM640.001 576v-85.333h-256v85.333h256z" />
<glyph unicode="&#xe97f;" glyph-name="comment_plus" d="M554.667 661.333v-85.333h85.333v-85.333h-85.333v-85.333h-85.333v85.333h-85.333v85.333h85.333v85.333h85.333zM213.333 832h597.333c47.061 0 85.333-38.272 85.333-85.333v-426.667c0-47.061-38.272-85.333-85.333-85.333h-426.679c-18.464 0-36.431-5.99-51.202-17.067l-204.785-153.6v682.667c0 47.061 38.272 85.333 85.333 85.333zM355.567 320h455.1v426.667h-597.333v-512l91.038 68.271c14.77 11.076 32.734 17.062 51.196 17.062z" />
<glyph unicode="&#xe980;" glyph-name="copy-alt" d="M597.333 21.334h-426.667c-49.165 0-85.333 36.169-85.333 85.333v426.667c0 49.165 36.169 85.333 85.333 85.333h170.667v170.667c0 49.165 36.169 85.333 85.333 85.333h426.667c49.164 0 85.333-36.169 85.333-85.333v-426.667c0-49.164-36.169-85.333-85.333-85.333h-170.667v-170.667c0-49.164-36.169-85.333-85.333-85.333zM682.667 362.668h170.667v426.667h-426.667v-170.667h170.667c49.164 0 85.333-36.169 85.333-85.333v-170.667zM597.333 106.668v426.667h-426.667v-426.667h426.667z" />
<glyph unicode="&#xe981;" glyph-name="copy" d="M426.667 874.666h426.667c49.165 0 85.333-36.169 85.333-85.333v-426.667c0-49.165-36.169-85.333-85.333-85.333h-170.667v-170.667c0-49.165-36.169-85.333-85.333-85.333h-426.667c-49.164 0-85.333 36.169-85.333 85.333v426.667c0 49.164 36.169 85.333 85.333 85.333h170.667v170.667c0 49.164 36.169 85.333 85.333 85.333zM341.333 533.332h-170.667v-426.667h426.667v170.667h-170.667c-49.164 0-85.333 36.169-85.333 85.333v170.667zM426.667 789.332v-426.667h426.667v426.667h-426.667z" />
<glyph unicode="&#xe982;" glyph-name="edit" d="M133.943 220.791l-10.449-114.944c-2.412-26.534 19.818-48.768 46.354-46.353l114.944 10.449 482.72 482.717-150.852 150.849-482.717-482.718zM888.19 673.339c16.661 16.662 16.661 43.677 0 60.34l-90.509 90.51c-16.661 16.663-43.678 16.663-60.339 0l-90.513-90.51 150.852-150.85 90.509 90.511z" />
<glyph unicode="&#xe983;" glyph-name="hide" d="M188.265 840.17l724.153-724.003-60.339-60.339-143.228 143.223c-53.628-25.011-118.635-41.472-196.851-41.472-323.925 0-421.277 282.325-422.211 285.184l-4.456 13.483 4.498 13.483c0.563 1.805 39.621 115.139 149.975 198.37l-111.807 111.807 60.265 60.265zM643.699 264.208l-76.681 76.681c-16.721-8.094-35.396-12.642-55.019-12.642-70.059 0-128 57.941-128 128 0 19.622 4.55 38.298 12.643 55.019l-96.426 96.425c-75.407-51.857-111.827-121.995-124.576-151.443 21.303-49.237 109.277-213.333 336.36-213.333 50.517 0 94.153 8.119 131.699 21.295zM512 754.912c323.925 0 421.278-282.324 422.212-285.183l4.454-13.483-4.497-13.483c-0.439-1.408-24.311-70.703-87.189-140.625l-59.379 59.375c33.553 38.003 52.331 75.26 60.757 94.733-21.303 49.237-109.274 213.332-336.358 213.332-10.773 0-21.231-0.369-31.386-1.078l-75.272 75.272c32.464 7.107 67.942 11.139 106.657 11.139z" />
<glyph unicode="&#xe984;" glyph-name="list_check" d="M636.395 664.767v-85.333h-554.667v85.333h554.667zM636.395 494.101v-85.333h-554.667v85.333h554.667zM465.728 323.434v-85.333h-384v85.333h384zM636.352 255.893l-55.125 55.083-60.331-60.373 115.456-115.371 273.92 273.536-60.245 60.416-213.675-213.291z" />
<glyph unicode="&#xe985;" glyph-name="list_minus" d="M554.667 234.667h384v85.333h-384v-85.333zM640 661.333v-85.333h-554.667v85.333h554.667zM640 490.667v-85.333h-554.667v85.333h554.667zM469.333 320v-85.333h-384v85.333h384z" />
<glyph unicode="&#xe986;" glyph-name="list_plus" d="M810.667 448h-85.333v-128h-128v-85.333h128v-128h85.333v128h128v85.333h-128v128zM640 661.333v-85.333h-554.667v85.333h554.667zM640 490.667v-85.333h-554.667v85.333h554.667zM512 320v-85.333h-426.667v85.333h426.667z" />
<glyph unicode="&#xe987;" glyph-name="list_ol" d="M212.968 576v128h-42.423v42.667h84.847v-170.667h-42.423zM874.667 704v-85.333h-509.077v85.333h509.077zM365.59 490.667v-85.333h509.077v85.333h-509.077zM365.59 277.333v-85.333h509.077v85.333h-509.077zM149.334 277.333v42.667h127.27v-170.667h-127.27v42.667h84.847v21.333h-42.423v42.667h42.423v21.333h-84.847zM225.695 490.667l-76.362-89.6v-38.4h127.27v42.667h-76.362l76.362 89.6v38.4h-127.27v-42.667h76.362z" />
<glyph unicode="&#xe988;" glyph-name="list_ul" d="M256 704v-85.333h-85.333v85.333h85.333zM256 490.667v-85.333h-85.333v85.333h85.333zM256 277.333v-85.333h-85.333v85.333h85.333zM853.333 704h-511.019v-85.333h511.019v85.333zM853.333 490.667v-85.333h-512v85.333h512zM853.333 277.333v-85.333h-512v85.333h512z" />
<glyph unicode="&#xe989;" glyph-name="minus" d="M213.333 405.333v85.333h597.333v-85.333h-597.333z" />
<glyph unicode="&#xe98a;" glyph-name="minus_circle" d="M85.333 448c0 235.52 191.147 426.667 426.667 426.667s426.667-191.147 426.667-426.667c0-235.52-191.147-426.667-426.667-426.667s-426.667 191.147-426.667 426.667c0 0 0 235.52 0 0zM298.667 405.333h426.667v85.333h-426.667v-85.333z" />
<glyph unicode="&#xe98b;" glyph-name="minus_circle_outline" d="M512 874.667c-235.52 0 0 0 0 0 235.52 0 426.667-191.147 426.667-426.667s-191.147-426.667-426.667-426.667c-235.52 0-426.667 191.147-426.667 426.667s191.147 426.667 426.667 426.667zM170.667 448c0-188.16 153.173-341.333 341.333-341.333s341.333 153.173 341.333 341.333c0 188.16-153.173 341.333-341.333 341.333s-341.333-153.173-341.333-341.333c0 0 0-188.16 0 0zM298.667 490.667h426.667v-85.333h-426.667v85.333z" />
<glyph unicode="&#xe98c;" glyph-name="minus_square" d="M810.667 832h-597.333c-47.36 0-85.333-38.4-85.333-85.333v-597.333c0-46.933 37.973-85.333 85.333-85.333h597.333c46.933 0 85.333 38.4 85.333 85.333v597.333c0 46.933-38.4 85.333-85.333 85.333zM810.667 149.333h-597.333v597.333h597.333v-597.333zM725.333 490.667v-85.333h-426.667v85.333h426.667z" />
<glyph unicode="&#xe98d;" glyph-name="move" d="M554.667 490.667v213.333h128l-170.667 170.667-170.667-170.667h128v-213.333h-213.333v128l-170.667-170.667 170.667-170.667v128h213.333v-213.333h-128l170.667-170.667 170.667 170.667h-128v213.333h213.333v-128l170.667 170.667-170.667 170.667v-128h-213.333z" />
<glyph unicode="&#xe98e;" glyph-name="move_horizontal" d="M298.667 490.666v170.667l-213.333-213.333 213.333-213.333v170.667h426.667v-170.667l213.333 213.333-213.333 213.333v-170.667h-426.667z" />
<glyph unicode="&#xe98f;" glyph-name="move_vertical" d="M512 21.333l213.333 213.333h-170.667v426.667h170.667l-213.333 213.333-213.333-213.333h170.667v-426.667h-170.667l213.333-213.333z" />
<glyph unicode="&#xe990;" glyph-name="plus" d="M554.666 405.333v-256h-85.333v256h-256v85.333h256v256h85.333v-256h256v-85.333h-256z" />
<glyph unicode="&#xe991;" glyph-name="plus_circle" d="M85.333 448c0 235.52 191.147 426.667 426.667 426.667s426.667-191.147 426.667-426.667c0-235.52-191.147-426.667-426.667-426.667s-426.667 191.147-426.667 426.667c0 0 0 235.52 0 0zM554.667 405.333h170.667v85.333h-170.667v170.667h-85.333v-170.667h-170.667v-85.333h170.667v-170.667h85.333v170.667z" />
<glyph unicode="&#xe992;" glyph-name="plus_circle_outline" d="M512 874.667c-235.52 0 0 0 0 0 235.52 0 426.667-191.147 426.667-426.667s-191.147-426.667-426.667-426.667c-235.52 0-426.667 191.147-426.667 426.667s191.147 426.667 426.667 426.667zM469.333 661.333h85.333v-170.667h170.667v-85.333h-170.667v-170.667h-85.333v170.667h-170.667v85.333h170.667v170.667zM170.667 448c0-188.16 153.173-341.333 341.333-341.333s341.333 153.173 341.333 341.333c0 188.16-153.173 341.333-341.333 341.333s-341.333-153.173-341.333-341.333c0 0 0-188.16 0 0z" />
<glyph unicode="&#xe993;" glyph-name="plus_square" d="M810.667 832h-597.333c-47.36 0-85.333-38.4-85.333-85.333v-597.333c0-46.933 37.973-85.333 85.333-85.333h597.333c46.933 0 85.333 38.4 85.333 85.333v597.333c0 46.933-38.4 85.333-85.333 85.333zM810.667 149.333h-597.333v597.333h597.333v-597.333zM554.667 234.667h-85.333v170.667h-170.667v85.333h170.667v170.667h85.333v-170.667h170.667v-85.333h-170.667v-170.667z" />
<glyph unicode="&#xe994;" glyph-name="search1" d="M622.41 397.926c71.253 99.977 62.029 239.672-27.665 329.367-99.977 99.974-262.065 99.974-362.039 0s-99.974-262.065 0-362.037c89.695-89.698 229.388-98.918 329.365-27.669l243.861-243.861 60.343 60.339-243.866 243.861c0 0 71.253 99.977 0 0zM534.406 666.954c66.65-66.65 66.65-174.708 0-241.358s-174.711-66.65-241.36 0c-66.649 66.65-66.649 174.708 0 241.358s174.711 66.649 241.36 0c0 0 66.65-66.65 0 0z" />
<glyph unicode="&#xe995;" glyph-name="search_small" d="M607.31 413.441c55.249 83.388 46.135 196.849-27.337 270.321-83.874 83.874-219.86 83.874-303.734 0s-83.874-219.86 0-303.734c73.472-73.472 186.934-82.586 270.321-27.337l203.358-203.358 60.749 60.749-203.358 203.358c0 0 55.249 83.388 0 0zM519.229 623.015c50.321-50.324 50.321-131.917 0-182.242-50.325-50.321-131.918-50.321-182.242 0-50.324 50.325-50.324 131.918 0 182.242s131.917 50.324 182.242 0c0 0 50.321-50.324 0 0z" />
<glyph unicode="&#xe996;" glyph-name="search_small_minus" d="M521.976 434.774c55.249 83.388 46.135 196.849-27.337 270.321-83.873 83.874-219.86 83.874-303.734 0s-83.874-219.86 0-303.734c73.472-73.472 186.932-82.586 270.321-27.337l246.025-246.025 60.749 60.749-246.025 246.025c0 0 55.249 83.388 0 0zM433.895 644.348c50.321-50.324 50.321-131.917 0-182.242-50.326-50.321-131.918-50.321-182.242 0-50.324 50.325-50.324 131.918 0 182.242s131.916 50.324 182.242 0c0 0 50.321-50.324 0 0zM896.001 597.334h-256v85.333h256v-85.333z" />
<glyph unicode="&#xe997;" glyph-name="search_small_plus" d="M521.976 434.774c55.249 83.388 46.135 196.849-27.337 270.321-83.873 83.874-219.86 83.874-303.734 0s-83.874-219.86 0-303.734c73.472-73.472 186.932-82.586 270.321-27.337l246.025-246.025 60.749 60.749-246.025 246.025c0 0 55.249 83.388 0 0zM433.895 644.348c50.321-50.324 50.321-131.917 0-182.242-50.326-50.321-131.918-50.321-182.242 0-50.324 50.325-50.324 131.918 0 182.242s131.916 50.324 182.242 0c0 0 50.321-50.324 0 0zM725.334 768.001h85.333v-85.333h85.333v-85.333h-85.333v-85.333h-85.333v85.333h-85.333v85.333h85.333v85.333z" />
<glyph unicode="&#xe998;" glyph-name="select_multiple" d="M798.166 624.916l-60.331 60.331-183.168-183.168-97.835 97.834-60.332-60.331 158.167-158.165 243.499 243.498zM853.334 874.666h-512c-47.061 0-85.333-38.272-85.333-85.333v-512c0-47.061 38.272-85.333 85.333-85.333h512c47.061 0 85.333 38.272 85.333 85.333v512c0 47.061-38.272 85.333-85.333 85.333zM341.334 277.332v512h512l0.085-512h-512.085zM85.334 618.666v-512c0-47.061 38.272-85.333 85.333-85.333h512v85.333h-512v512h-85.333z" />
<glyph unicode="&#xe999;" glyph-name="show" d="M383.999 448c0-70.059 57.941-128 128-128 70.016 0 128 57.941 128 128 0 70.016-57.984 128-128 128-70.059 0-128-57.984-128-128zM89.831 461.483l-4.498-13.483 4.456-13.483c0.934-2.859 98.285-285.184 422.211-285.184s421.278 282.325 422.17 285.184l4.497 13.483-4.454 13.483c-0.934 2.859-98.287 285.184-422.212 285.184s-421.277-282.325-422.168-285.184zM175.639 448c21.388 49.408 109.404 213.333 336.36 213.333 227.085 0 315.055-164.096 336.358-213.333-21.389-49.408-109.402-213.333-336.358-213.333-227.083 0-315.056 164.096-336.36 213.333z" />
<glyph unicode="&#xe99a;" glyph-name="text_align_center" d="M896 746.667h-768v-85.333h768v85.333zM768 490.667h-512v85.333h512v-85.333zM896 405.333h-768v-85.333h768v85.333zM768 234.667h-512v-85.333h512v85.333z" />
<glyph unicode="&#xe99b;" glyph-name="text_align_justify" d="M896 746.667h-768v-85.333h768v85.333zM896 490.667h-768v85.333h768v-85.333zM896 405.333h-768v-85.333h768v85.333zM896 234.667h-768v-85.333h768v85.333z" />
<glyph unicode="&#xe99c;" glyph-name="text_align_left" d="M896 746.667h-768v-85.333h768v85.333zM640 490.667h-512v85.333h512v-85.333zM896 405.333h-768v-85.333h768v85.333zM640 234.667h-512v-85.333h512v85.333z" />
<glyph unicode="&#xe99d;" glyph-name="text_align_right" d="M896 746.667h-768v-85.333h768v85.333zM896 490.667h-512v85.333h512v-85.333zM896 405.333h-768v-85.333h768v85.333zM896 234.667h-512v-85.333h512v85.333z" />
</font>
</defs>
</svg>
